<svg width="74" height="92" viewBox="0 0 74 92" fill="none" xmlns="http://www.w3.org/2000/svg">
<path d="M0 69.7567V39.0397L39.0108 61.2831V92L0 69.7567Z" fill="url(#paint0_linear_1_481)"/>
<path d="M73.8036 72.58V41.8631L39.0103 61.2818V91.9987L73.8036 72.58Z" fill="url(#paint1_linear_1_481)"/>
<path d="M0 39.0388L34.7934 19.62L73.8041 41.8634L39.0108 61.2821L0 39.0388Z" fill="url(#paint2_linear_1_481)"/>
<path d="M33.827 42.482L34.6177 42.0407L35.1449 42.3055L34.3541 42.7468L35.4963 43.453L34.7934 43.8943L33.6512 43.1882L31.0154 44.6887L30.6639 44.4239L29.8732 40.8932L30.6639 40.4519L33.827 42.482ZM31.279 43.8943L33.0362 42.9234L30.6639 41.5111L30.7518 41.5994L31.279 43.8943Z" fill="black"/>
<path d="M38.3949 39.3036C39.0978 39.745 39.5371 40.1863 39.5371 40.5394C39.5371 40.8925 39.3613 41.2455 38.6584 41.5986C38.1313 41.9517 37.4284 42.1282 36.8133 42.0399C36.1104 41.9517 35.4075 41.7751 34.7925 41.3338L34.0018 40.8042C33.2989 40.3629 32.8596 39.9215 32.8596 39.5685C32.7717 39.2154 33.1231 38.8623 33.7382 38.5092C34.2653 38.1562 34.9682 37.9796 35.5833 38.0679C36.2862 38.1562 36.9891 38.3327 37.6041 38.7741L38.3949 39.3036ZM36.9012 39.2154C36.4619 38.9506 36.0226 38.7741 35.4954 38.6858C35.0561 38.5975 34.7047 38.6858 34.3532 38.9506C34.0018 39.1271 33.826 39.3919 33.9139 39.6567C34.0018 39.9215 34.2653 40.1863 34.7925 40.4511L35.759 41.069C36.1983 41.3338 36.7255 41.5103 37.1648 41.5986C37.6041 41.6869 37.9555 41.5986 38.3949 41.3338C38.7463 41.1573 38.922 40.8925 38.8342 40.6277C38.7463 40.3628 38.4827 40.0981 37.9555 39.8332L36.9012 39.2154Z" fill="black"/>
<path fill-rule="evenodd" clip-rule="evenodd" d="M24.8649 32.6844L24.5134 34.8028L25.3042 35.3324L25.6556 32.9492L29.3458 35.3324L30.0487 34.8911L26.3585 32.5079L30.3123 32.4196L29.5216 31.89L26.1828 31.9782L24.8649 32.6844Z" fill="#36A94C"/>
<path fill-rule="evenodd" clip-rule="evenodd" d="M48.6757 45.3932L49.0272 43.2748L48.2364 42.7452L47.885 45.2167L44.1948 42.8335L43.4919 43.2748L47.1821 45.658L43.2283 45.7463L44.019 46.2759L47.3578 46.1876L48.6757 45.3932Z" fill="#36A94C"/>
<path d="M39.3628 38.4216L37.2542 36.7446L40.1536 35.0675L40.7686 35.4205L38.4842 36.7446L39.6264 37.6272C39.8021 37.3624 40.0657 37.0976 40.3293 36.9211C40.8565 36.6563 41.3837 36.4798 41.9987 36.4798C42.6137 36.4798 43.1409 36.6563 43.6681 36.9211C44.1952 37.1859 44.371 37.539 44.371 37.892C44.371 38.2451 44.0195 38.5982 43.4923 38.863C42.9652 39.1278 42.438 39.3043 41.9108 39.3926C41.3837 39.3926 40.8565 39.3043 40.4172 39.1278L41.1201 38.7747C41.3837 38.9513 41.7351 38.9512 42.0866 38.9512C42.438 38.9512 42.7895 38.863 43.053 38.6864C43.4045 38.5099 43.5802 38.2451 43.5802 38.0686C43.5802 37.8038 43.4045 37.6272 43.053 37.3624C42.7016 37.1859 42.3501 37.0976 41.9987 37.0976C41.6472 37.0976 41.2079 37.1859 40.8565 37.3624C40.5929 37.4507 40.4172 37.6272 40.2415 37.892L40.0657 38.1568L39.3628 38.4216Z" fill="black"/>
<path d="M43.4914 25.5345L37.1653 1.34933C37.0774 0.907998 36.814 0.643197 36.4626 0.466663L36.5504 0.290131L36.0233 0.201859C35.8475 0.201859 35.6718 0.290123 35.4961 0.37839L6.23801 17.3257C5.53511 17.767 5.18367 18.738 5.44726 19.6206L11.7733 43.8058C11.949 44.2471 12.2126 44.6002 12.5641 44.6002L13.0034 44.6885L12.9155 44.512L42.7885 27.2116C43.4035 26.9468 43.6671 26.1524 43.4914 25.5345Z" fill="url(#paint3_linear_1_481)"/>
<path d="M35.9352 0.378095L6.6771 17.4137C5.9742 17.855 5.62276 18.8259 5.88634 19.7086L12.2124 43.8938C12.3881 44.5999 12.9153 44.8647 13.4425 44.5999L43.3154 27.2113C43.8426 26.8582 44.1062 26.1521 43.9304 25.5342L37.6044 1.26077C37.4286 0.378095 36.6381 0.0250264 35.9352 0.378095Z" fill="#494855"/>
<path d="M36.8132 1.082L6.41296 18.7354L12.6512 42.391L43.0516 24.7376L36.8132 1.082Z" fill="#494855"/>
<path d="M42.7004 23.5918L12.3002 41.2452L12.5638 42.3044L42.964 24.651L42.7004 23.5918Z" fill="#494855"/>
<path d="M64.4907 39.0402V37.8927L63.5242 37.981L45.3367 27.4772C44.8095 27.1241 43.8431 27.1241 43.228 27.4772L15.2881 43.8066L13.3551 43.9831V45.2189C13.3551 45.3954 13.5308 45.6602 13.7944 45.8368L32.3333 56.6053C33.1241 57.0467 34.442 57.0467 35.1449 56.6053L63.8756 39.8346C64.3149 39.658 64.4907 39.3933 64.4907 39.0402Z" fill="url(#paint4_linear_1_481)"/>
<path d="M63.8761 37.0983L45.3372 26.3298C44.81 25.9767 43.8435 25.9767 43.2285 26.3298L13.7947 43.5418C13.2675 43.8949 13.2675 44.4245 13.7947 44.7776L32.3336 55.5461C33.1243 55.9875 34.4423 55.9875 35.1452 55.5461L63.8761 38.7754C64.6668 38.2458 64.6668 37.5397 63.8761 37.0983Z" fill="url(#paint5_linear_1_481)"/>
<path d="M54.8265 42.5705L49.3791 39.3929C49.0276 39.2164 48.5883 39.2164 48.2369 39.3929L36.2876 46.366C35.9362 46.5425 35.9362 46.8074 36.2876 47.0722L41.7351 50.2498C42.0865 50.4263 42.5258 50.4263 42.8773 50.2498L54.8265 43.2767C55.0901 43.1001 55.0901 42.7471 54.8265 42.5705Z" fill="#D5E1D8"/>
<path d="M19.8561 44.6886L18.5382 43.8942C18.3625 43.8059 18.1868 43.8059 18.0989 43.8942L16.781 44.6886C16.6052 44.7768 16.6052 44.8651 16.781 44.9533L18.0989 45.7478C18.2746 45.836 18.4503 45.836 18.5382 45.7478L19.8561 44.9533C20.0319 44.8651 20.0319 44.6886 19.8561 44.6886Z" fill="#57565E"/>
<path d="M21.9654 43.4527L20.5596 42.6583C20.3838 42.5701 20.2081 42.5701 20.1203 42.6583L18.8023 43.4527C18.6266 43.541 18.6266 43.6292 18.8023 43.7175L20.1203 44.5119C20.296 44.6002 20.4717 44.6002 20.5596 44.5119L21.8775 43.7175C22.0532 43.6292 22.0532 43.541 21.9654 43.4527Z" fill="#57565E"/>
<path d="M24.0742 42.2169L22.7562 41.4225C22.5805 41.3342 22.4048 41.3342 22.3169 41.4225L20.999 42.2169C20.8233 42.3052 20.8233 42.3934 20.999 42.4817L22.3169 43.2761C22.4926 43.3643 22.6684 43.3643 22.7562 43.2761L24.0742 42.4817C24.162 42.4817 24.162 42.3052 24.0742 42.2169Z" fill="#57565E"/>
<path d="M26.0939 41.0685L24.776 40.2741C24.6003 40.1858 24.4246 40.1858 24.3367 40.2741L23.0188 41.0685C22.843 41.1568 22.843 41.245 23.0188 41.3333L24.3367 42.1277C24.5124 42.2159 24.6881 42.2159 24.776 42.1277L26.0939 41.3333C26.2697 41.245 26.2697 41.0685 26.0939 41.0685Z" fill="#57565E"/>
<path d="M28.2037 39.7459L26.8857 39.0397C26.71 38.9515 26.5343 38.9515 26.4464 39.0397L25.1285 39.8341C24.9528 39.9224 24.9528 40.0107 25.1285 40.0989L26.4464 40.8934C26.6221 40.9816 26.7979 40.9816 26.8857 40.8934L28.2037 40.0989C28.3794 40.0107 28.3794 39.9224 28.2037 39.7459Z" fill="#57565E"/>
<path d="M30.3118 38.5973L28.9939 37.8029C28.8182 37.7146 28.6424 37.7146 28.5546 37.8029L27.2367 38.5973C27.0609 38.6856 27.0609 38.7738 27.2367 38.8621L28.5546 39.6565C28.7303 39.7448 28.906 39.7448 28.9939 39.6565L30.3118 38.8621C30.3997 38.7738 30.3997 38.6856 30.3118 38.5973Z" fill="#57565E"/>
<path d="M32.4217 37.3615L31.1038 36.5671C30.928 36.4788 30.7523 36.4788 30.6644 36.5671L29.3465 37.3615C29.1708 37.4497 29.1708 37.538 29.3465 37.6263L30.6644 38.4207C30.8402 38.5089 31.0159 38.5089 31.1038 38.4207L32.4217 37.6263C32.5096 37.538 32.5096 37.4497 32.4217 37.3615Z" fill="#57565E"/>
<path d="M34.4413 36.1257L33.1233 35.3312C32.9476 35.243 32.7719 35.243 32.684 35.3312L31.3661 36.1257C31.1025 36.2139 31.1025 36.3905 31.2782 36.3905L32.5962 37.1849C32.7719 37.2731 32.9476 37.2731 33.0355 37.1849L34.3534 36.3905C34.617 36.3905 34.617 36.2139 34.4413 36.1257Z" fill="#57565E"/>
<path d="M36.5512 34.9782L35.2333 34.1838C35.0575 34.0955 34.8818 34.0955 34.794 34.1838L33.476 34.9782C33.3003 35.0665 33.3003 35.1548 33.476 35.243L34.794 36.0374C34.9697 36.1257 35.1454 36.1257 35.2333 36.0374L36.5512 35.243C36.6391 35.1548 36.6391 34.9782 36.5512 34.9782Z" fill="#57565E"/>
<path d="M38.6588 33.7424L37.253 32.948C37.0773 32.8597 36.9016 32.8597 36.8137 32.948L35.4958 33.7424C35.3201 33.8306 35.3201 33.9189 35.4958 34.0072L36.8137 34.8016C36.9895 34.8898 37.1652 34.8898 37.253 34.8016L38.571 34.0072C38.7467 33.9189 38.7467 33.8306 38.6588 33.7424Z" fill="#57565E"/>
<path d="M40.6791 32.5075L39.3612 31.7131C39.1855 31.6249 39.0098 31.6249 38.9219 31.7131L37.604 32.5075C37.4282 32.5958 37.4282 32.6841 37.604 32.7723L38.9219 33.5667C39.0976 33.655 39.2733 33.655 39.3612 33.5667L40.6791 32.7723C40.8549 32.6841 40.8549 32.5958 40.6791 32.5075Z" fill="#57565E"/>
<path d="M27.3257 42.7469L26.0078 41.9525C25.8321 41.8642 25.6564 41.8642 25.5685 41.9525L24.2506 42.7469C24.0748 42.8352 24.0748 42.9234 24.2506 43.0117L25.5685 43.8061C25.7442 43.8944 25.9199 43.8944 26.0078 43.8061L27.3257 43.0117C27.5015 42.9234 27.5015 42.8352 27.3257 42.7469Z" fill="#57565E"/>
<path d="M29.3454 41.6005L28.0275 40.8061C27.8517 40.7178 27.676 40.7178 27.5882 40.8061L26.2702 41.6005C26.0945 41.6888 26.0945 41.777 26.2702 41.8653L27.5882 42.5714C27.7639 42.6597 27.9396 42.6597 28.0275 42.5714L29.3454 41.777C29.5211 41.777 29.5211 41.6005 29.3454 41.6005Z" fill="#57565E"/>
<path d="M31.542 40.2757L30.2241 39.4813C30.0484 39.3931 29.8727 39.3931 29.7848 39.4813L28.4669 40.2757C28.2912 40.364 28.2912 40.4522 28.4669 40.5405L29.7848 41.3349C29.9605 41.4232 30.1363 41.4232 30.2241 41.3349L31.542 40.5405C31.6299 40.5405 31.6299 40.4523 31.542 40.2757Z" fill="#57565E"/>
<path d="M33.5634 39.1273L32.2455 38.3329C32.0698 38.2446 31.894 38.2446 31.8062 38.3329L30.4882 39.1273C30.3125 39.2156 30.3125 39.3038 30.4882 39.3921L31.8062 40.1865C31.9819 40.2748 32.1576 40.2748 32.2455 40.1865L33.5634 39.3921C33.6513 39.3038 33.6513 39.1273 33.5634 39.1273Z" fill="#57565E"/>
<path d="M35.6716 37.8915L34.3536 37.0971C34.1779 37.0088 34.0022 37.0088 33.9143 37.0971L32.5964 37.8915C32.4207 37.9798 32.4207 38.068 32.5964 38.1563L33.9143 38.9507C34.09 39.039 34.2658 39.039 34.3536 38.9507L35.6716 38.1563C35.7594 38.1563 35.7594 37.9798 35.6716 37.8915Z" fill="#57565E"/>
<path d="M37.6929 36.6557L36.375 35.8612C36.1993 35.773 36.0235 35.773 35.9357 35.8612L34.6178 36.6557C34.442 36.7439 34.442 36.8322 34.6178 36.9204L35.9357 37.7148C36.1114 37.8031 36.2871 37.8031 36.375 37.7148L37.6929 36.9204C37.8687 36.9204 37.8687 36.7439 37.6929 36.6557Z" fill="#57565E"/>
<path d="M39.8008 35.5082L38.4828 34.7138C38.3071 34.6255 38.1314 34.6255 38.0435 34.7138L36.6375 35.5082C36.4618 35.5965 36.4618 35.6847 36.6375 35.773L37.9556 36.5674C38.1314 36.6557 38.3071 36.6557 38.395 36.5674L39.7129 35.773C39.8886 35.6847 39.8886 35.5082 39.8008 35.5082Z" fill="#57565E"/>
<path d="M41.9092 34.2729L40.5913 33.4785C40.4156 33.3902 40.2399 33.3902 40.152 33.4785L38.8341 34.2729C38.6583 34.3612 38.6583 34.4494 38.8341 34.5377L40.152 35.3321C40.3277 35.4203 40.5034 35.4203 40.5913 35.3321L41.9092 34.5377C42.085 34.4494 42.085 34.3612 41.9092 34.2729Z" fill="#57565E"/>
<path d="M43.9317 33.0371L42.6137 32.2427C42.438 32.1544 42.2623 32.1544 42.1744 32.2427L40.7686 33.0371C40.5929 33.1253 40.5929 33.2136 40.7686 33.3019L42.0866 34.0963C42.2623 34.1845 42.438 34.1845 42.5259 34.0963L43.8438 33.3019C44.1074 33.2136 44.1074 33.1253 43.9317 33.0371Z" fill="#57565E"/>
<path d="M46.1267 31.8019L44.7209 31.0957C44.5452 31.0075 44.3695 31.0075 44.2816 31.0957L42.9637 31.8901C42.788 31.9784 42.788 32.0667 42.9637 32.1549L44.2816 32.8611C44.4574 32.9493 44.6331 32.9493 44.7209 32.8611L46.0389 32.0667C46.2146 31.9784 46.2146 31.8901 46.1267 31.8019Z" fill="#57565E"/>
<path d="M42.789 31.2717L41.4711 30.4773C41.2953 30.3891 41.1196 30.3891 41.0318 30.4773L39.7138 31.2717C39.5381 31.36 39.5381 31.4483 39.7138 31.5365L41.0318 32.3309C41.2075 32.4192 41.3832 32.4192 41.4711 32.3309L42.789 31.5365C42.9647 31.4483 42.9647 31.36 42.789 31.2717Z" fill="#57565E"/>
<path d="M44.8972 30.0365L43.5792 29.3304C43.4035 29.2421 43.2278 29.2421 43.1399 29.3304L41.822 30.1248C41.6463 30.2131 41.6463 30.3013 41.822 30.3896L43.1399 31.184C43.3156 31.2723 43.4914 31.2723 43.5792 31.184L44.8972 30.3896C44.985 30.3013 44.985 30.1248 44.8972 30.0365Z" fill="#57565E"/>
<path d="M28.2905 49.5445L26.9725 48.7501C26.7968 48.6618 26.6211 48.6618 26.5332 48.7501L25.2153 49.5445C25.0396 49.6328 25.0396 49.721 25.2153 49.8093L26.5332 50.6037C26.7089 50.692 26.8847 50.692 26.9725 50.6037L28.2905 49.8093C28.4662 49.721 28.4662 49.6328 28.2905 49.5445Z" fill="#57565E"/>
<path d="M30.4003 48.3956L29.0824 47.6012C28.9067 47.5129 28.7309 47.5129 28.6431 47.6012L27.3252 48.3956C27.1494 48.4838 27.1494 48.5721 27.3252 48.6603L28.6431 49.4547C28.8188 49.543 28.9945 49.543 29.0824 49.4547L30.4003 48.6603C30.4882 48.5721 30.4882 48.3956 30.4003 48.3956Z" fill="#57565E"/>
<path d="M32.5096 47.072L31.1038 46.3658C30.928 46.2776 30.7523 46.2776 30.6644 46.3658L29.3465 47.072C29.1708 47.1603 29.1708 47.2485 29.3465 47.3368L30.6644 48.1312C30.8402 48.2195 31.0159 48.2195 31.1038 48.1312L32.4217 47.3368C32.6853 47.3368 32.6853 47.2485 32.5096 47.072Z" fill="#57565E"/>
<path d="M34.5298 45.9224L33.2119 45.128C33.0362 45.0397 32.8605 45.0397 32.7726 45.128L31.4547 45.9224C31.2789 46.0107 31.2789 46.0989 31.4547 46.1872L32.7726 46.9816C32.9483 47.0699 33.124 47.0699 33.2119 46.9816L34.5298 46.1872C34.7056 46.0989 34.7056 46.0107 34.5298 45.9224Z" fill="#57565E"/>
<path d="M25.2159 43.9822L23.8979 43.1878C23.7222 43.0996 23.5465 43.0996 23.4586 43.1878L22.1407 43.9822C21.965 44.0705 21.965 44.1587 22.1407 44.247L23.4586 45.0414C23.6344 45.1297 23.8101 45.1297 23.8979 45.0414L25.2159 44.247C25.3916 44.247 25.3916 44.0705 25.2159 43.9822Z" fill="#57565E"/>
<path d="M47.27 28.7106L45.952 27.9162C45.7763 27.828 45.6006 27.828 45.5127 27.9162L43.8433 28.8872C43.6676 28.9754 43.6676 29.0637 43.8433 29.152L45.1613 29.9464C45.337 30.0346 45.5127 30.0346 45.6006 29.9464L47.27 28.9754C47.4457 28.8872 47.4457 28.7106 47.27 28.7106Z" fill="#57565E"/>
<path d="M47.3574 38.421L46.0394 37.6266C45.8637 37.5383 45.688 37.5383 45.6001 37.6266L33.5628 44.5997C33.3871 44.688 33.3871 44.7762 33.5628 44.8645L34.8808 45.6589C35.0565 45.7472 35.2322 45.7472 35.3201 45.6589L47.3574 38.6858C47.4452 38.6858 47.4452 38.5093 47.3574 38.421Z" fill="#57565E"/>
<path d="M20.2077 42.0401L19.8563 41.8636C19.6806 41.7753 19.5048 41.7753 19.417 41.8636L18.0112 42.5697C17.8355 42.658 17.8355 42.7462 18.0112 42.8345L18.3626 43.011C18.5384 43.0993 18.7141 43.0993 18.8019 43.011L20.1199 42.2166C20.2956 42.2166 20.2956 42.1284 20.2077 42.0401Z" fill="#57565E"/>
<path d="M22.2296 40.8043L21.8782 40.6277C21.7024 40.5395 21.5267 40.5395 21.4389 40.6277L20.1209 41.4222C19.9452 41.5104 19.9452 41.5987 20.1209 41.6869L20.4724 41.8635C20.6481 41.9518 20.8238 41.9518 20.9117 41.8635L22.2296 41.0691C22.4053 41.0691 22.4053 40.8925 22.2296 40.8043Z" fill="#57565E"/>
<path d="M24.3379 39.6578L23.9864 39.4813C23.8107 39.3931 23.635 39.3931 23.5471 39.4813L22.2292 40.2757C22.0535 40.364 22.0535 40.4523 22.2292 40.5405L22.5807 40.7171C22.7564 40.8053 22.9321 40.8053 23.02 40.7171L24.3379 39.9227C24.5136 39.8344 24.5136 39.6578 24.3379 39.6578Z" fill="#57565E"/>
<path d="M26.4459 38.4229L26.0945 38.1581C25.9188 38.0698 25.743 38.0698 25.6552 38.1581L24.3372 38.9525C24.1615 39.0407 24.1615 39.129 24.3372 39.2173L24.6887 39.3938C24.8644 39.4821 25.0401 39.4821 25.128 39.3938L26.4459 38.5994C26.6217 38.5994 26.6217 38.5111 26.4459 38.4229Z" fill="#57565E"/>
<path d="M28.4674 37.1842L28.116 37.0076C27.9402 36.9194 27.7645 36.9194 27.6767 37.0076L26.3587 37.802C26.183 37.8903 26.183 37.9786 26.3587 38.0669L26.7102 38.2434C26.8859 38.3316 27.0616 38.3316 27.1495 38.2434L28.4674 37.449C28.6431 37.3607 28.6431 37.2724 28.4674 37.1842Z" fill="#57565E"/>
<path d="M30.6634 35.9509L30.2241 35.7743C30.0484 35.6861 29.8727 35.6861 29.7848 35.7743L28.4669 36.4805C28.2912 36.5688 28.2912 36.657 28.4669 36.7453L28.8183 36.9218C28.994 37.0101 29.1698 37.0101 29.2576 36.9218L30.5756 36.1274C30.7513 36.1274 30.7513 36.0391 30.6634 35.9509Z" fill="#57565E"/>
<path d="M32.6837 34.7115L32.3323 34.535C32.1566 34.4467 31.9808 34.4467 31.893 34.535L30.575 35.3294C30.3993 35.4176 30.3993 35.5059 30.575 35.5942L30.9265 35.7707C31.1022 35.859 31.2779 35.859 31.3658 35.7707L32.6837 34.9763C32.7716 34.9763 32.7716 34.7998 32.6837 34.7115Z" fill="#57565E"/>
<path d="M34.7936 33.5661L34.4421 33.3896C34.2664 33.3013 34.0907 33.3013 34.0028 33.3896L32.6849 34.184C32.5092 34.2722 32.5092 34.3605 32.6849 34.4488L33.0363 34.6253C33.2121 34.7136 33.3878 34.7136 33.4757 34.6253L34.7936 33.8309C34.8815 33.7426 34.8815 33.5661 34.7936 33.5661Z" fill="#57565E"/>
<path d="M36.8143 32.3303L36.4629 32.1537C36.2871 32.0655 36.1114 32.0655 36.0236 32.1537L34.6178 32.8599C34.442 32.9481 34.442 33.0364 34.6178 33.1247L34.9692 33.3012C35.1449 33.3895 35.3207 33.3895 35.4085 33.3012L36.7265 32.5068C36.99 32.5068 36.99 32.4185 36.8143 32.3303Z" fill="#57565E"/>
<path d="M38.9231 31.0944L38.5717 30.9179C38.3959 30.8296 38.2202 30.8296 38.1323 30.9179L36.8144 31.7123C36.6387 31.8006 36.6387 31.8888 36.8144 31.9771L37.1659 32.1537C37.3416 32.2419 37.5173 32.2419 37.6052 32.1537L38.9231 31.3592C39.011 31.3592 39.011 31.1827 38.9231 31.0944Z" fill="#57565E"/>
<path d="M41.0312 29.8591L40.6798 29.6826C40.5041 29.5943 40.3284 29.5943 40.2405 29.6826L38.9226 30.477C38.7468 30.5652 38.7468 30.6535 38.9226 30.7418L39.274 30.9183C39.4497 31.0066 39.6255 31.0066 39.7133 30.9183L41.0312 30.1239C41.207 30.0356 41.207 29.9474 41.0312 29.8591Z" fill="#57565E"/>
<path d="M43.0526 28.713L42.7012 28.4482C42.5254 28.36 42.3497 28.36 42.2619 28.4482L40.9439 29.2426C40.7682 29.3309 40.7682 29.4192 40.9439 29.5074L41.2954 29.684C41.4711 29.7722 41.6468 29.7722 41.7347 29.684L43.0526 28.8896C43.2283 28.8896 43.2283 28.713 43.0526 28.713Z" fill="#57565E"/>
<path d="M45.1608 27.4757L44.8093 27.2109C44.6336 27.1226 44.4579 27.1226 44.37 27.2109L43.0521 28.0053C42.8764 28.0936 42.8764 28.1818 43.0521 28.2701L43.4035 28.4466C43.5793 28.5349 43.755 28.5349 43.8428 28.4466L45.1608 27.6522C45.3365 27.6522 45.3365 27.564 45.1608 27.4757Z" fill="#57565E"/>
<path d="M18.0994 43.2759L17.7479 43.0994C17.5722 43.0111 17.3965 43.0111 17.3086 43.0994L15.6392 44.0704C15.4635 44.1586 15.4635 44.2469 15.6392 44.3351L15.9907 44.5117C16.1664 44.6 16.3421 44.6 16.43 44.5117L18.0994 43.5407C18.1872 43.4525 18.1872 43.3642 18.0994 43.2759Z" fill="#57565E"/>
<path d="M23.195 45.2181L21.8771 44.4237C21.7013 44.3354 21.5256 44.3354 21.4378 44.4237L18.9776 45.8359C18.8019 45.9242 18.8019 46.0125 18.9776 46.1007L20.2955 46.8951C20.4713 46.9834 20.647 46.9834 20.7349 46.8951L23.195 45.4828C23.2829 45.3946 23.2829 45.3063 23.195 45.2181Z" fill="#57565E"/>
<path d="M26.3579 45.8355L24.9521 45.0411C24.7764 44.9528 24.6007 44.9528 24.5128 45.0411L20.9105 47.1595C20.7348 47.2478 20.7348 47.336 20.9105 47.4243L22.2284 48.2187C22.4041 48.3069 22.5799 48.3069 22.6677 48.2187L26.2701 46.1003C26.4458 46.012 26.4458 45.9238 26.3579 45.8355Z" fill="#57565E"/>
<path d="M28.4667 47.0713L27.1488 46.2769C26.9731 46.1886 26.7974 46.1886 26.7095 46.2769L23.1071 48.3953C22.9314 48.4836 22.9314 48.5718 23.1071 48.6601L24.4251 49.4545C24.6008 49.5428 24.7765 49.5428 24.8644 49.4545L28.4667 47.3361C28.5546 47.2478 28.5546 47.0713 28.4667 47.0713Z" fill="#57565E"/>
<path d="M49.3787 29.8595L48.0607 29.0651C47.885 28.9769 47.7093 28.9769 47.6214 29.0651L45.0734 30.5657C44.8977 30.6539 44.8977 30.7422 45.0734 30.8305L46.3914 31.6249C46.5671 31.7131 46.7428 31.7131 46.8307 31.6249L49.3787 30.1243C49.4665 30.0361 49.4665 29.9478 49.3787 29.8595Z" fill="#57565E"/>
<path d="M51.4873 31.0954L50.1694 30.301C49.9937 30.2127 49.8179 30.2127 49.7301 30.301L46.0399 32.4194C45.8641 32.5077 45.8641 32.5959 46.0399 32.6842L47.3578 33.4786C47.5335 33.5669 47.7093 33.5669 47.7971 33.4786L51.3995 31.3602C51.5752 31.3602 51.5752 31.1837 51.4873 31.0954Z" fill="#57565E"/>
<path d="M52.6297 34.2724L52.2783 34.0959C52.1026 34.0076 51.9268 34.0076 51.839 34.0959L50.4332 34.802C50.2575 34.8903 50.2575 34.9786 50.4332 35.0668L50.7846 35.2434C50.9604 35.3316 51.1361 35.3316 51.2239 35.2434L52.5419 34.449C52.7176 34.449 52.7176 34.3607 52.6297 34.2724Z" fill="#57565E"/>
<path d="M53.5968 34.8034L53.2454 34.6269C53.0696 34.5386 52.8939 34.5386 52.806 34.6269L51.4881 35.4213C51.3124 35.5096 51.3124 35.5978 51.4881 35.6861L51.8396 35.8627C52.0153 35.9509 52.191 35.9509 52.2789 35.8627L53.5968 35.0683C53.7725 34.98 53.7725 34.8917 53.5968 34.8034Z" fill="#57565E"/>
<path d="M45.074 34.8903L43.7561 34.0959C43.5804 34.0076 43.4046 34.0076 43.3168 34.0959L41.9989 34.8903C41.8231 34.9786 41.8231 35.0668 41.9989 35.1551L43.3168 35.9495C43.4925 36.0378 43.6682 36.0378 43.7561 35.9495L45.074 35.1551C45.2497 35.0668 45.2497 34.9786 45.074 34.8903Z" fill="#57565E"/>
<path d="M47.0938 33.656L45.7759 32.8616C45.6001 32.7733 45.4244 32.7733 45.3366 32.8616L44.0186 33.656C43.8429 33.7442 43.8429 33.8325 44.0186 33.9208L45.3366 34.7152C45.5123 34.8035 45.688 34.8035 45.7759 34.7152L47.0938 33.9208C47.2695 33.8325 47.2695 33.7442 47.0938 33.656Z" fill="#57565E"/>
<path d="M47.1822 36.1257L45.8643 35.3312C45.6885 35.243 45.5128 35.243 45.4249 35.3312L44.107 36.1257C43.9313 36.2139 43.9313 36.3022 44.107 36.3905L45.4249 37.1849C45.6007 37.2731 45.7764 37.2731 45.8643 37.1849L47.1822 36.3905C47.3579 36.3022 47.3579 36.2139 47.1822 36.1257Z" fill="#57565E"/>
<path d="M49.2903 34.8903L47.9724 34.0959C47.7967 34.0076 47.621 34.0076 47.5331 34.0959L46.2152 34.8903C46.0394 34.9786 46.0394 35.0668 46.2152 35.1551L47.5331 35.9495C47.7088 36.0378 47.8845 36.0378 47.9724 35.9495L49.2903 35.1551C49.3782 35.1551 49.3782 34.9786 49.2903 34.8903Z" fill="#57565E"/>
<path d="M51.3996 33.656L49.9938 32.8616C49.818 32.7733 49.6423 32.7733 49.5545 32.8616L48.2365 33.656C48.0608 33.7442 48.0608 33.8325 48.2365 33.9208L49.5545 34.7152C49.7302 34.8035 49.9059 34.8035 49.9938 34.7152L51.3117 33.9208C51.4874 33.8325 51.4874 33.7442 51.3996 33.656Z" fill="#57565E"/>
<path d="M53.5956 32.3307L52.2776 31.5363C52.1019 31.448 51.9262 31.448 51.8383 31.5363L50.3447 32.419C50.169 32.5072 50.169 32.5955 50.3447 32.6838L51.6626 33.4782C51.8383 33.5664 52.0141 33.5664 52.1019 33.4782L53.5956 32.5955C53.7713 32.5955 53.7713 32.419 53.5956 32.3307Z" fill="#57565E"/>
<path d="M40.9439 37.2746L39.6259 36.4802C39.4502 36.3919 39.2745 36.3919 39.1866 36.4802L37.7808 37.2746C37.6051 37.3628 37.6051 37.4511 37.7808 37.5394L39.0988 38.3338C39.2745 38.4221 39.4502 38.4221 39.5381 38.3338L40.856 37.5394C41.0317 37.5394 41.0317 37.3628 40.9439 37.2746Z" fill="#57565E"/>
<path d="M42.9642 36.1257L41.6462 35.3312C41.4705 35.243 41.2948 35.243 41.2069 35.3312L39.889 36.1257C39.7133 36.2139 39.7133 36.3022 39.889 36.3905L41.2069 37.1849C41.3826 37.2731 41.5584 37.2731 41.6462 37.1849L42.9642 36.3905C43.1399 36.3022 43.1399 36.1257 42.9642 36.1257Z" fill="#57565E"/>
<path d="M43.052 38.509L41.6462 37.8029C41.4705 37.7146 41.2948 37.7146 41.2069 37.8029L39.889 38.509C39.7133 38.5973 39.7133 38.6856 39.889 38.7738L41.2069 39.5682C41.3826 39.6565 41.5584 39.6565 41.6462 39.5682L42.9642 38.7738C43.1399 38.7738 43.1399 38.5973 43.052 38.509Z" fill="#57565E"/>
<path d="M45.074 37.3615L43.7561 36.5671C43.5804 36.4788 43.4046 36.4788 43.3168 36.5671L41.9989 37.3615C41.8231 37.4497 41.8231 37.538 41.9989 37.6263L43.3168 38.4207C43.4925 38.5089 43.6682 38.5089 43.7561 38.4207L45.074 37.6263C45.2497 37.538 45.2497 37.3615 45.074 37.3615Z" fill="#57565E"/>
<path d="M36.7265 39.7437L35.4086 38.9493C35.2328 38.861 35.0571 38.861 34.9693 38.9493L33.6513 39.7437C33.4756 39.832 33.4756 39.9203 33.6513 40.0085L34.9693 40.8029C35.145 40.8912 35.3207 40.8912 35.4086 40.8029L36.7265 40.0085C36.9022 39.9203 36.9022 39.832 36.7265 39.7437Z" fill="#57565E"/>
<path d="M38.8348 38.5079L37.5169 37.7135C37.3412 37.6252 37.1655 37.6252 37.0776 37.7135L35.7595 38.5079C35.5838 38.5961 35.5838 38.6844 35.7595 38.7727L37.0776 39.5671C37.2533 39.6554 37.429 39.6554 37.5169 39.5671L38.8348 38.7727C38.9227 38.7727 38.9227 38.5961 38.8348 38.5079Z" fill="#57565E"/>
<path d="M38.8348 40.9811L37.5169 40.1867C37.3412 40.0984 37.1655 40.0984 37.0776 40.1867L35.7595 40.9811C35.5838 41.0693 35.5838 41.1576 35.7595 41.2459L37.0776 42.0403C37.2533 42.1285 37.429 42.1285 37.5169 42.0403L38.8348 41.2459C39.0106 41.1576 39.0106 41.0693 38.8348 40.9811Z" fill="#57565E"/>
<path d="M40.9444 39.7437L39.6265 38.9493C39.4507 38.861 39.275 38.861 39.1872 38.9493L37.8692 39.7437C37.6935 39.832 37.6935 39.9203 37.8692 40.0085L39.1872 40.8029C39.3629 40.8912 39.5386 40.8912 39.6265 40.8029L40.9444 40.0085C41.0323 39.9203 41.0323 39.832 40.9444 39.7437Z" fill="#57565E"/>
<path d="M32.597 42.2169L31.279 41.4225C31.1033 41.3342 30.9276 41.3342 30.8397 41.4225L29.5218 42.2169C29.3461 42.3052 29.3461 42.3934 29.5218 42.4817L30.8397 43.2761C31.0155 43.3643 31.1912 43.3643 31.279 43.2761L32.597 42.4817C32.6848 42.3934 32.6848 42.2169 32.597 42.2169Z" fill="#57565E"/>
<path d="M34.6183 40.8926L33.3004 40.0982C33.1247 40.01 32.949 40.01 32.8611 40.0982L31.5432 40.8926C31.3674 40.9809 31.3674 41.0692 31.5432 41.1574L32.8611 41.9518C33.0368 42.0401 33.2126 42.0401 33.3004 41.9518L34.6183 41.1574C34.7941 41.1574 34.7941 41.0692 34.6183 40.8926Z" fill="#57565E"/>
<path d="M34.7062 43.4527L33.3883 42.6583C33.2125 42.5701 33.0368 42.5701 32.949 42.6583L31.5432 43.4527C31.3674 43.541 31.3674 43.6292 31.5432 43.7175L32.8611 44.5119C33.0368 44.6002 33.2125 44.6002 33.3004 44.5119L34.6183 43.7175C34.7941 43.541 34.7941 43.4527 34.7062 43.4527Z" fill="#57565E"/>
<path d="M36.8149 42.2169L35.4969 41.4225C35.3212 41.3342 35.1455 41.3342 35.0576 41.4225L33.7397 42.2169C33.564 42.3052 33.564 42.3934 33.7397 42.4817L35.0576 43.2761C35.2334 43.3643 35.4091 43.3643 35.4969 43.2761L36.8149 42.4817C36.9027 42.3934 36.9027 42.3052 36.8149 42.2169Z" fill="#57565E"/>
<path d="M28.379 44.5992L27.061 43.8047C26.8853 43.7165 26.7096 43.7165 26.6217 43.8047L25.3038 44.5992C25.1281 44.6874 25.1281 44.7757 25.3038 44.864L26.6217 45.6584C26.7974 45.7466 26.9732 45.7466 27.061 45.6584L28.379 44.864C28.5547 44.864 28.5547 44.6874 28.379 44.5992Z" fill="#57565E"/>
<path d="M30.4882 43.3658L29.0824 42.5714C28.9067 42.4832 28.7309 42.4832 28.6431 42.5714L27.3252 43.3658C27.1494 43.4541 27.1494 43.5423 27.3252 43.6306L28.6431 44.425C28.8188 44.5133 28.9945 44.5133 29.0824 44.425L30.4003 43.6306C30.6639 43.5423 30.6639 43.4541 30.4882 43.3658Z" fill="#57565E"/>
<path d="M30.4888 45.8355L29.1709 45.0411C28.9952 44.9528 28.8194 44.9528 28.7316 45.0411L27.4137 45.8355C27.2379 45.9238 27.2379 46.012 27.4137 46.1003L28.7316 46.8947C28.9073 46.9829 29.083 46.9829 29.1709 46.8947L30.4888 46.1003C30.6646 46.012 30.6646 45.9238 30.4888 45.8355Z" fill="#57565E"/>
<path d="M32.597 44.5992L31.2791 43.8047C31.1033 43.7165 30.9276 43.7165 30.8397 43.8047L29.5218 44.5992C29.3461 44.6874 29.3461 44.7757 29.5218 44.864L30.8397 45.6584C31.0155 45.7466 31.1912 45.7466 31.2791 45.6584L32.597 44.864C32.7727 44.864 32.7727 44.6874 32.597 44.5992Z" fill="#57565E"/>
<path d="M49.3788 37.2746L48.0609 36.4802C47.8852 36.3919 47.7095 36.3919 47.6216 36.4802L46.3037 37.2746C46.1279 37.3628 46.1279 37.4511 46.3037 37.5394L47.6216 38.3338C47.7973 38.4221 47.973 38.4221 48.0609 38.3338L49.3788 37.5394C49.5546 37.4511 49.5546 37.2746 49.3788 37.2746Z" fill="#57565E"/>
<path d="M51.487 36.0367L50.1691 35.2423C49.9933 35.154 49.8176 35.154 49.7298 35.2423L48.4118 36.0367C48.2361 36.125 48.2361 36.2133 48.4118 36.3015L49.7298 37.0959C49.9055 37.1842 50.0812 37.1842 50.1691 37.0959L51.487 36.3015C51.5749 36.2133 51.5749 36.125 51.487 36.0367Z" fill="#57565E"/>
<path d="M55.705 33.5651L54.3871 32.7706C54.2114 32.6824 54.0356 32.6824 53.9478 32.7706L52.6298 33.5651C52.4541 33.6533 52.4541 33.7416 52.6298 33.8298L53.9478 34.6242C54.1235 34.7125 54.2992 34.7125 54.3871 34.6242L55.705 33.8298C55.8807 33.7416 55.8807 33.6533 55.705 33.5651Z" fill="#57565E"/>
<g style="mix-blend-mode:lighten">
<rect x="0.603271" width="73.3967" height="91.6632" fill="#032EDD"/>
</g>
<defs>
<linearGradient id="paint0_linear_1_481" x1="28.8403" y1="61.0553" x2="-2.33476" y2="75.9462" gradientUnits="userSpaceOnUse">
<stop offset="0.15" stop-color="#EDEDED"/>
<stop offset="1" stop-color="#DFDFDF"/>
</linearGradient>
<linearGradient id="paint1_linear_1_481" x1="70.3102" y1="69.6645" x2="26.3581" y2="61.1563" gradientUnits="userSpaceOnUse">
<stop offset="0.15" stop-color="#E6E6E6"/>
<stop offset="1" stop-color="#BBBBBB"/>
</linearGradient>
<linearGradient id="paint2_linear_1_481" x1="61.4569" y1="52.6981" x2="-16.258" y2="14.3384" gradientUnits="userSpaceOnUse">
<stop offset="0.1927" stop-color="#E9E8E8"/>
<stop offset="1" stop-color="white"/>
</linearGradient>
<linearGradient id="paint3_linear_1_481" x1="16.6852" y1="42.9708" x2="32.5962" y2="1.26727" gradientUnits="userSpaceOnUse">
<stop stop-color="#A9CFB1"/>
<stop offset="1" stop-color="white"/>
</linearGradient>
<linearGradient id="paint4_linear_1_481" x1="18.5712" y1="34.716" x2="43.2699" y2="43.5814" gradientUnits="userSpaceOnUse">
<stop stop-color="#B2C9B8"/>
<stop offset="1" stop-color="#D5E1D8"/>
</linearGradient>
<linearGradient id="paint5_linear_1_481" x1="26.0375" y1="53.3995" x2="49.0063" y2="31.5962" gradientUnits="userSpaceOnUse">
<stop stop-color="#F4F9F5"/>
<stop offset="1" stop-color="white"/>
</linearGradient>
</defs>
</svg>
