<svg width="118" height="24" viewBox="0 0 118 24" fill="none" xmlns="http://www.w3.org/2000/svg">
<path d="M4.95889 24C4.06539 24 3.23891 23.7778 2.47944 23.3333C1.71997 22.8889 1.11687 22.2889 0.67012 21.5333C0.223373 20.7778 0 19.9556 0 19.0667V4.93333C0 4.02222 0.223373 3.2 0.67012 2.46667C1.11687 1.71111 1.71997 1.11111 2.47944 0.666666C3.23891 0.222222 4.06539 0 4.95889 0H19.1654C20.0589 0 20.8742 0.222222 21.6114 0.666666C22.3708 1.11111 22.9739 1.71111 23.4207 2.46667C23.8898 3.2 24.1243 4.02222 24.1243 4.93333V19.0667C24.1243 19.9556 23.8898 20.7778 23.4207 21.5333C22.9739 22.2889 22.3708 22.8889 21.6114 23.3333C20.8742 23.7778 20.0589 24 19.1654 24H4.95889ZM5.19343 18.8H18.8639V5.2H5.19343V18.8Z" fill="black"/>
<path d="M27.8142 24V0H33.1751L41.3506 9.7L49.4925 0H54.887V24H49.6601V7.9L41.3506 17.7667L33.0076 7.93333V24H27.8142Z" fill="black"/>
<path d="M58.8988 24V0H64.2598L77.7627 16V0H83.0231V24H77.6622L64.0922 7.93333V24H58.8988Z" fill="black"/>
<path d="M85.9392 24V0H91.0656V24H85.9392Z" fill="black"/>
<path d="M98.9016 24C97.9857 24 97.1481 23.7778 96.3886 23.3333C95.6515 22.8889 95.0595 22.3 94.6128 21.5667C94.1661 20.8111 93.9427 19.9778 93.9427 19.0667V4.93333C93.9427 4.02222 94.1661 3.2 94.6128 2.46667C95.0595 1.71111 95.6515 1.11111 96.3886 0.666666C97.1481 0.222222 97.9857 0 98.9016 0H118V5.2H100.242C99.8844 5.2 99.6052 5.28889 99.4042 5.46667C99.2255 5.64444 99.1361 5.92222 99.1361 6.3V17.7C99.1361 18.0556 99.2255 18.3333 99.4042 18.5333C99.6052 18.7111 99.8844 18.8 100.242 18.8H118V24H98.9016Z" fill="black"/>
</svg>
