<svg width="68" height="60" viewBox="0 0 68 60" fill="none" xmlns="http://www.w3.org/2000/svg">
<path d="M0.529785 40.0895V17.1369L36.0794 36.7879V59.7406L0.529785 40.0895Z" fill="url(#paint0_linear_1_939)"/>
<path d="M67.7857 42.5254V19.6515L36.0793 36.7872V59.7397L67.7857 42.5254Z" fill="url(#paint1_linear_1_939)"/>
<path d="M0.529785 17.1357L32.2361 0L67.7857 19.6511L35.9993 36.7868L0.529785 17.1357Z" fill="url(#paint2_linear_1_939)"/>
<path d="M54.1749 21.6953L47.2892 17.7651L13.1808 16.9004L37.3609 31.285L37.7613 31.0492L54.1749 21.6953Z" fill="url(#paint3_linear_1_939)"/>
<path d="M37.5211 30.4197L53.1341 21.5374L30.7154 8.25325C30.4752 8.09604 30.235 8.09604 29.9948 8.25325L14.9423 16.8211L37.5211 30.4197Z" fill="#2FAB46"/>
<path d="M37.5211 30.2626L53.1341 21.3803L30.7154 8.09619C30.4752 7.93898 30.235 7.93898 29.9948 8.09619L14.9423 16.6641L37.5211 30.2626Z" fill="#EFF7FF"/>
<path d="M37.5211 29.9485L53.054 20.9876L30.7154 7.78209C30.4752 7.62488 30.235 7.62488 29.9948 7.78209L14.9423 16.35L37.5211 29.9485Z" fill="#2FAB46"/>
<path d="M37.5211 29.7123L53.1341 20.83L30.7154 7.54587C30.4752 7.38866 30.235 7.38866 29.9948 7.54587L14.9423 16.1137L37.5211 29.7123Z" fill="#EFF7FF"/>
<path d="M37.5211 29.3979L53.1341 20.5157L30.7154 7.23152C30.4752 7.07431 30.235 7.07431 29.9948 7.23152L14.9423 15.7994L37.5211 29.3979Z" fill="#2FAB46"/>
<path d="M37.5211 29.2409L53.1341 20.3586L30.7154 7.07445C30.4752 6.91724 30.235 6.91724 29.9948 7.07445L14.9423 15.6423L37.5211 29.2409Z" fill="#EFF7FF"/>
<path d="M37.5211 28.8471L53.1341 19.9648L30.7154 6.68068C30.4752 6.52347 30.235 6.52347 29.9948 6.68068L14.9423 15.2485L37.5211 28.8471Z" fill="#2FAB46"/>
<path d="M37.5211 28.69L53.1341 19.8078L30.7154 6.52364C30.4752 6.36643 30.235 6.36643 29.9948 6.52364L14.9423 15.0915L37.5211 28.69Z" fill="#EFF7FF"/>
<path d="M37.5211 28.2194L53.1341 19.3371L30.7154 6.05298C30.4752 5.89577 30.235 5.89577 29.9948 6.05298L14.9423 14.6208L37.5211 28.2194Z" fill="#2FAB46"/>
<path d="M37.5211 28.0621L53.1341 19.1798L30.7154 5.89566C30.4752 5.73845 30.235 5.73845 29.9948 5.89566L14.9423 14.4635L37.5211 28.0621Z" fill="#EFF7FF"/>
<path d="M54.1754 17.3712L30.3956 3.22247C30.1554 3.06527 29.8352 3.06527 29.595 3.22247L13.5016 12.4192C12.861 12.7336 12.5408 13.3624 12.5408 14.0699V16.2708C12.5408 16.5852 12.781 16.8996 13.0212 16.9782L37.1212 31.2842L36.8811 28.2186L37.6016 26.8038L54.1754 17.3712ZM17.2647 18.4717C16.7043 18.1573 16.2238 17.2926 16.2238 16.6638C16.2238 16.035 16.7043 15.7206 17.2647 16.035C17.8252 16.3494 18.3056 17.214 18.3056 17.8429C18.3056 18.5503 17.8252 18.7861 17.2647 18.4717Z" fill="url(#paint4_linear_1_939)"/>
<path d="M37.6006 26.8038L54.1744 17.3713L30.3946 3.22247C30.1544 3.06527 29.8342 3.06527 29.594 3.22247L13.5006 12.4192L37.6006 26.8038Z" fill="url(#paint5_linear_1_939)"/>
<path d="M37.7609 31.048C37.6808 31.048 37.6007 31.1266 37.5207 31.1266C37.2805 31.1266 37.0402 30.9694 37.0402 30.655V28.4541C37.0402 27.8252 37.3605 27.3536 37.921 27.0392L54.1746 17.7639V17.4495L37.7609 26.7248C37.1203 27.0392 36.8 27.668 36.8 28.3755V30.5764C36.8 31.2052 37.4406 31.5196 38.0011 31.2052L54.2546 21.9299V21.5369L37.7609 31.048Z" fill="#494855"/>
<path d="M17.2634 15.7211C16.5428 15.328 15.9022 15.6425 15.9022 16.4285C15.9022 17.2931 16.5428 18.315 17.2634 18.708C17.984 19.101 18.6244 18.7866 18.6244 18.0006C18.6244 17.2145 17.984 16.1927 17.2634 15.7211Z" fill="#2FAB46"/>
<path d="M29.3545 25.7039L19.5062 20.123V17.3718L29.3545 22.9527V25.7039Z" fill="url(#paint6_linear_1_939)"/>
<g style="mix-blend-mode:lighten">
<rect y="0.119064" width="68" height="59.8811" fill="#032EDD"/>
</g>
<defs>
<linearGradient id="paint0_linear_1_939" x1="26.4346" y1="34.2023" x2="-0.550551" y2="48.8086" gradientUnits="userSpaceOnUse">
<stop offset="0.15" stop-color="#EEEEEE"/>
<stop offset="1" stop-color="#E0E0E0"/>
</linearGradient>
<linearGradient id="paint1_linear_1_939" x1="64.4613" y1="42.3603" x2="24.8358" y2="33.6198" gradientUnits="userSpaceOnUse">
<stop offset="0.15" stop-color="#E7E7E7"/>
<stop offset="1" stop-color="#BCBCBC"/>
</linearGradient>
<linearGradient id="paint2_linear_1_939" x1="56.4283" y1="29.3405" x2="-13.5051" y2="-6.27661" gradientUnits="userSpaceOnUse">
<stop offset="0.1927" stop-color="#EAE9E9"/>
<stop offset="1" stop-color="white"/>
</linearGradient>
<linearGradient id="paint3_linear_1_939" x1="33.7523" y1="19.2379" x2="47.2092" y2="10.82" gradientUnits="userSpaceOnUse">
<stop stop-color="#B2CAB9"/>
<stop offset="1" stop-color="#D6E2D9"/>
</linearGradient>
<linearGradient id="paint4_linear_1_939" x1="27.3899" y1="26.5758" x2="30.2555" y2="21.0639" gradientUnits="userSpaceOnUse">
<stop stop-color="#DEF3E3"/>
<stop offset="0.2396" stop-color="#A9D1B1"/>
<stop offset="1" stop-color="white"/>
</linearGradient>
<linearGradient id="paint5_linear_1_939" x1="33.8623" y1="26.8327" x2="33.8623" y2="-36.0532" gradientUnits="userSpaceOnUse">
<stop offset="0.15" stop-color="#F7FFF8"/>
<stop offset="1" stop-color="#E0F8E4"/>
</linearGradient>
<linearGradient id="paint6_linear_1_939" x1="25.2943" y1="20.8758" x2="19.4234" y2="25.5902" gradientUnits="userSpaceOnUse">
<stop offset="0.15" stop-color="#E4F2E7"/>
<stop offset="1" stop-color="#CCFFD5"/>
</linearGradient>
</defs>
</svg>
