<svg width="60" height="80" viewBox="0 0 60 80" fill="none" xmlns="http://www.w3.org/2000/svg">
<path d="M0 61.1474V28.2987L34.4615 46.8039V79.6526L0 61.1474Z" fill="url(#paint0_linear_1_457)"/>
<path d="M59.9994 66.2736V33.4252L34.4609 46.8025V79.6509L59.9994 66.2736Z" fill="url(#paint1_linear_1_457)"/>
<path d="M0 28.2987L25.5385 14.9214L60 33.4267L34.4615 46.804L0 28.2987Z" fill="url(#paint2_linear_1_457)"/>
<path d="M23.5395 36.2496C23.2318 36.1009 22.1548 35.9523 21.6164 35.9523C20.9241 35.878 20.4626 35.8036 20.001 35.7293C18.3856 35.2091 16.9241 34.0943 15.7702 32.3107C13.5395 29.115 15.001 24.21 16.0779 21.6089C17.001 19.3793 17.7703 17.0754 18.5395 14.8459C19.0779 13.2852 19.6164 11.6502 20.2318 10.0152L22.8472 10.907C22.3087 12.4677 21.6933 14.1027 21.1549 15.6634C20.3856 17.9673 19.5395 20.3455 18.6164 22.575C17.9241 24.2843 16.4626 28.5205 18.001 30.8986C18.6164 31.7905 19.5395 32.8309 20.7703 33.2025C20.9241 33.2768 21.4626 33.2768 21.7702 33.3511C23.5395 33.4998 25.0779 33.7227 25.6164 34.8375L23.0779 35.878C23.3087 36.1009 23.5395 36.2496 23.5395 36.2496Z" fill="#494855"/>
<path d="M20.4622 9.12332L25.7698 36.4724L26.2314 38.5534L39.0775 31.5674L41.0006 30.527C41.3852 30.304 41.616 29.8581 41.616 29.1893V11.2785C41.616 8.00854 40.9237 4.81286 38.7698 2.65763C38.616 2.50899 38.4621 2.36035 38.3083 2.21172C37.8467 1.84013 37.3852 1.54285 36.9237 1.24558L36.8468 1.17126C36.3083 0.873987 35.6929 0.799669 35.3083 1.02262C35.0775 1.02262 20.4622 9.12332 20.4622 9.12332Z" fill="url(#paint3_linear_1_457)"/>
<path d="M25.7677 36.4727L26.1523 38.5536L38.9985 31.5677V18.9336L26.7677 25.6965L25.7677 36.4727Z" fill="url(#paint4_linear_1_457)"/>
<path d="M29.1532 34.6156L29.2301 20.6438C29.2301 19.6777 29.9993 18.4142 30.8455 17.894L38.384 13.7322C38.8455 13.4349 39.307 13.4349 39.6147 13.6579L42.6147 15.3672L39.9993 21.3127V28.6702C39.9993 29.6363 39.2301 30.8997 38.384 31.4199L34.5378 33.4265L32.7685 37.4397L29.6147 35.6561C29.307 35.5075 29.1532 35.2102 29.1532 34.6156Z" fill="#ECF4EE"/>
<path d="M32.3092 22.4272V36.4733C32.3092 36.9192 32.463 37.2908 32.7707 37.4395C33.0784 37.6624 33.54 37.6624 34.0015 37.3651L41.463 33.2033C42.3092 32.7574 43.0784 31.494 43.0784 30.5279V16.4074C43.0784 15.8872 42.9246 15.5156 42.5399 15.3669C42.2322 15.2183 41.8476 15.2926 41.3861 15.5156L33.9246 19.6774C33.0784 20.1976 32.3092 21.3867 32.3092 22.4272Z" fill="url(#paint5_linear_1_457)"/>
<path d="M33.9241 25.4737V26.1426L40.001 22.7983L43.0779 21.0889V20.3458L40.001 22.1294L33.9241 25.4737Z" fill="#494855"/>
<path d="M32.6924 27.0344L33.6924 26.4399V25.1765L32.6924 25.6967V27.0344Z" fill="#494855"/>
<path d="M32.6924 29.2656L33.6924 28.6711L33.3847 26.5902L32.9231 26.8875L32.6924 29.2656Z" fill="#494855"/>
<path d="M23.9233 19.7501L22.9233 19.2299V17.8921L23.9233 18.4124V19.7501Z" fill="#494855"/>
<path d="M23.9233 22.0553L22.9233 21.4607L23.231 19.3798L23.6926 19.6771L23.9233 22.0553Z" fill="#494855"/>
<path d="M23.1528 10.0151V17.8186L23.7683 18.1901V10.6097L38.6144 2.65762C38.4605 2.50899 38.3067 2.36035 38.1528 2.21171L23.1528 10.0151Z" fill="#494855"/>
<path fill-rule="evenodd" clip-rule="evenodd" d="M19.6917 21.5335V10.4601C19.6917 9.12236 20.6917 8.60213 21.8455 9.27099L21.9224 9.34531C25.6147 11.3519 26.6916 15.2908 26.6916 19.3783V25.6953V25.7697V37.289C26.6916 38.6267 25.7686 39.2213 24.5378 38.4781L21.8455 36.9917C20.6917 36.3229 19.6917 34.6878 19.6917 33.3501V21.5335Z" fill="url(#paint6_linear_1_457)"/>
<path d="M31.9988 2.36115L32.6912 2.88138L32.7681 3.25297L31.7681 2.73274L31.9988 2.36115Z" fill="#683C11"/>
<path d="M26.0019 5.85443C27.2327 2.80739 30.4635 1.02375 31.6942 2.73307C31.8481 2.88171 32.0789 2.95602 32.2327 2.80739C32.3866 2.65875 32.4635 2.21284 32.3096 1.98989C30.7711 -0.0910245 26.925 2.0642 25.3865 5.85443C25.2327 6.22603 25.2327 6.59762 25.4634 6.59762C25.6173 6.5233 25.8481 6.22603 26.0019 5.85443Z" fill="#494855"/>
<path d="M31.6154 1.32024L32.6923 1.91478L28.6154 3.10388L26.3077 6.96843L25.3846 6.52252L27.9231 2.43501L31.6154 1.32024Z" fill="#494855"/>
<path d="M26.9229 6.30055C28.1537 3.2535 31.3845 1.46986 32.6152 3.17918C32.7691 3.32782 32.9998 3.40214 33.1537 3.2535C33.3075 3.10486 33.3845 2.65895 33.2306 2.436C31.6922 0.429404 27.846 2.51032 26.3844 6.30055C26.2306 6.67214 26.2306 7.04374 26.4614 7.04374C26.6152 7.04374 26.846 6.67214 26.9229 6.30055Z" fill="#494855"/>
<g style="mix-blend-mode:lighten">
<rect x="0.0865479" width="59.7494" height="80" fill="#032EDD"/>
</g>
<defs>
<linearGradient id="paint0_linear_1_457" x1="25.8669" y1="50.4743" x2="-2.59559" y2="62.8843" gradientUnits="userSpaceOnUse">
<stop offset="0.15" stop-color="#EDEDED"/>
<stop offset="1" stop-color="#DFDFDF"/>
</linearGradient>
<linearGradient id="paint1_linear_1_457" x1="57.5802" y1="58.0369" x2="24.946" y2="53.0101" gradientUnits="userSpaceOnUse">
<stop offset="0.15" stop-color="#E6E6E6"/>
<stop offset="1" stop-color="#BBBBBB"/>
</linearGradient>
<linearGradient id="paint2_linear_1_457" x1="49.7577" y1="40.5832" x2="-11.8156" y2="8.23142" gradientUnits="userSpaceOnUse">
<stop offset="0.1927" stop-color="#E9E8E8"/>
<stop offset="1" stop-color="white"/>
</linearGradient>
<linearGradient id="paint3_linear_1_457" x1="24.4598" y1="6.64495" x2="35.6826" y2="27.4002" gradientUnits="userSpaceOnUse">
<stop stop-color="#DDF2E2"/>
<stop offset="0.1665" stop-color="#A9CFB1"/>
<stop offset="0.3445" stop-color="#B1D4B8"/>
<stop offset="1" stop-color="white"/>
</linearGradient>
<linearGradient id="paint4_linear_1_457" x1="28.35" y1="37.1847" x2="36.6777" y2="20.1336" gradientUnits="userSpaceOnUse">
<stop stop-color="#A9CFB1"/>
<stop offset="1" stop-color="white"/>
</linearGradient>
<linearGradient id="paint5_linear_1_457" x1="31.9546" y1="34.3555" x2="43.0781" y2="17.9345" gradientUnits="userSpaceOnUse">
<stop stop-color="#A9CFB1"/>
<stop offset="1" stop-color="white"/>
</linearGradient>
<linearGradient id="paint6_linear_1_457" x1="20.6116" y1="23.6585" x2="24.4121" y2="23.9825" gradientUnits="userSpaceOnUse">
<stop stop-color="#B2C9B8"/>
<stop offset="1" stop-color="#D5E1D8"/>
</linearGradient>
</defs>
</svg>
