<svg width="52" height="64" viewBox="0 0 52 64" fill="none" xmlns="http://www.w3.org/2000/svg">
<path d="M0 47.5852V23.4799L29.7186 39.8947V64L0 47.5852Z" fill="url(#paint0_linear_1_438)"/>
<path d="M51.6851 52.1733V28.0677L29.7192 39.8942V63.9997L51.6851 52.1733Z" fill="url(#paint1_linear_1_438)"/>
<path d="M0 23.4794L21.9659 11.6529L51.6844 28.0677L29.7186 39.8942L0 23.4794Z" fill="url(#paint2_linear_1_438)"/>
<path d="M27.065 25.0933L28.2211 19.277L25.7048 21.7327L25.6368 25.1579L25.9769 25.7395L27.065 25.0933Z" fill="#36A94C"/>
<path d="M23.1215 20.1183L23.3255 24.2543L25.9777 25.676L26.1817 21.7339L23.1215 20.1183Z" fill="#2C973C"/>
<path d="M19.0411 19.7955C17.885 23.4791 12.5126 28.6492 14.8928 29.8124C16.0489 30.3941 21.2853 29.4893 23.2575 27.9383C24.0736 27.292 24.2776 24.9655 25.7737 22.8975C27.4059 20.6356 28.2219 20.4418 28.698 18.8261C29.174 17.1459 27.4059 15.0132 27.2698 13.6561C27.0658 11.9112 27.8139 7.71056 27.9499 1.24802L18.5651 4.47929C19.5852 7.51668 20.1292 16.1765 19.0411 19.7955Z" fill="url(#paint3_linear_1_438)"/>
<path d="M37.4035 26.9037L38.4916 21.152L35.9754 23.6078L35.9073 26.9683L36.2474 27.5499L37.4035 26.9037Z" fill="#36A94C"/>
<path d="M33.4608 21.9918L33.6648 26.1278L36.3171 27.5496L36.5211 23.6074L33.4608 21.9918Z" fill="#2C973C"/>
<path d="M29.3785 21.6692C28.2224 25.3528 22.85 30.4582 25.2302 31.6215C26.3863 32.2031 31.6227 31.2984 33.5949 29.7473C34.411 29.1011 34.615 26.7746 36.1111 24.7066C37.7433 22.4447 38.5593 22.2508 39.0354 20.6352C39.5114 19.0195 37.7432 16.8223 37.6072 15.4651C37.4032 13.7203 38.1513 9.51961 38.2873 3.05708L28.8345 6.28834C29.9226 9.26111 30.4666 17.9855 29.3785 21.6692Z" fill="url(#paint4_linear_1_438)"/>
<path d="M27.4743 0.27822C28.6304 0.924474 27.6783 2.47548 25.3661 3.76799C23.0539 5.0605 20.1977 5.5775 19.0416 4.93124C17.8855 4.28499 18.8376 2.73398 21.1498 1.44148C23.462 0.148969 26.3182 -0.368033 27.4743 0.27822Z" fill="#494855"/>
<path d="M25.4339 15.7887C25.2979 15.7887 25.2299 15.7241 25.2299 15.5948C25.0259 13.6561 25.2299 11.7819 25.4339 9.84317C25.6379 7.90441 25.91 5.8364 25.6379 3.63914C25.6379 3.63914 25.8419 3.44526 26.114 3.31601C26.386 5.5779 26.114 7.77516 25.91 9.84317C25.7059 11.7819 25.4339 13.6561 25.7059 15.5302C25.7739 15.6594 25.6379 15.7887 25.4339 15.7887C25.5019 15.7887 25.5019 15.7887 25.4339 15.7887Z" fill="#494855"/>
<path d="M37.8118 2.08679C38.9679 2.73304 38.0158 4.28405 35.7036 5.57656C33.3915 6.86907 30.5352 7.38607 29.3791 6.73982C28.223 6.09356 29.1751 4.54255 31.4873 3.25005C33.7995 2.02216 36.5877 1.44054 37.8118 2.08679Z" fill="#494855"/>
<g style="mix-blend-mode:lighten">
<rect x="0.528687" y="0.114861" width="51.4713" height="63.5815" fill="#032EDD"/>
</g>
<defs>
<linearGradient id="paint0_linear_1_438" x1="22.1155" y1="40.6425" x2="-1.67882" y2="51.9615" gradientUnits="userSpaceOnUse">
<stop offset="0.15" stop-color="#EDEDED"/>
<stop offset="1" stop-color="#DFDFDF"/>
</linearGradient>
<linearGradient id="paint1_linear_1_438" x1="49.5667" y1="47.4033" x2="21.5999" y2="42.6389" gradientUnits="userSpaceOnUse">
<stop offset="0.15" stop-color="#E6E6E6"/>
<stop offset="1" stop-color="#BBBBBB"/>
</linearGradient>
<linearGradient id="paint2_linear_1_438" x1="43.1708" y1="33.7672" x2="-10.523" y2="6.36127" gradientUnits="userSpaceOnUse">
<stop offset="0.1927" stop-color="#E9E8E8"/>
<stop offset="1" stop-color="white"/>
</linearGradient>
<linearGradient id="paint3_linear_1_438" x1="14.8268" y1="15.5724" x2="27.4045" y2="15.581" gradientUnits="userSpaceOnUse">
<stop stop-color="#AFD6B7"/>
<stop offset="1" stop-color="#DEF3E3"/>
</linearGradient>
<linearGradient id="paint4_linear_1_438" x1="25.1635" y1="17.368" x2="37.7419" y2="17.3767" gradientUnits="userSpaceOnUse">
<stop stop-color="#AFD6B7"/>
<stop offset="1" stop-color="#DEF3E3"/>
</linearGradient>
</defs>
</svg>
