<svg width="99" height="116" viewBox="0 0 99 116" fill="none" xmlns="http://www.w3.org/2000/svg">
<path d="M0 91.7078V48.695L43.2985 72.9872V116L0 91.7078Z" fill="url(#paint0_linear_1_579)"/>
<path d="M98.888 87.3647V44.3519L43.2992 72.8785V115.891L98.888 87.3647Z" fill="url(#paint1_linear_1_579)"/>
<path d="M0 48.6961L55.7016 20.1695L99 44.4616L43.1856 72.8768L0 48.6961Z" fill="url(#paint2_linear_1_579)"/>
<path d="M54.2362 48.1377V46.9119V47.3576L54.1234 47.4691V47.5805L53.6724 48.0262L53.1086 48.472L52.3194 48.9177L51.4173 49.1405L50.4025 49.252L49.3877 49.1405L48.3729 48.9177L47.4708 48.5834L46.907 48.1377C47.0198 47.8034 47.0198 47.5805 47.0198 47.4691C47.0198 47.3576 46.005 46.8005 46.005 46.8005V49.1405C46.005 49.1405 46.3433 49.9206 47.1326 50.3663L47.2454 50.4777L47.5836 50.5891L47.6963 50.7006L48.3729 50.9235L49.3877 51.0349L50.4025 51.1463L51.4173 51.0349L52.3194 50.812H52.4321L52.8832 50.7006L52.9959 50.5891L53.2214 50.4777L53.3341 50.3663L53.7852 50.032V49.9206L54.1234 49.4748V49.1405L54.2362 48.8062V48.1377Z" fill="#B2C9B6"/>
<path d="M34.6158 36.7736L33.4883 37.3308L32.8118 41.2309L33.9393 40.5623L34.6158 36.7736Z" fill="#B2C9B6"/>
<path d="M33.9393 46.4668L34.052 46.2439V45.7982V45.3525V44.9067V44.6839V44.5724V44.461V40.5609L32.9244 41.2295V46.9125V47.024L33.9393 46.4668Z" fill="#B2C9B6"/>
<path d="M48.712 37.3302L48.5992 37.9988L47.4716 38.6674C47.3589 38.2216 47.0207 37.9987 46.6824 37.6645C46.2314 37.4416 46.0058 37.553 45.6676 37.7759L34.0537 44.3504V46.3562L32.9261 47.0248C32.8134 46.579 32.4751 46.2447 32.024 46.0218C31.3475 45.6875 30.8965 45.9104 30.8965 46.6904C30.8965 47.4705 31.3475 48.2505 32.024 48.5848C32.1368 48.6962 32.3623 48.6962 32.4751 48.6962L32.5878 48.8076L32.9261 48.6962L34.1664 48.0276L48.8247 39.6702C49.163 39.5588 49.2758 39.3359 49.2758 38.8902C49.163 38.2216 48.9375 37.6645 48.712 37.3302Z" fill="url(#paint3_linear_1_579)"/>
<path d="M31.7969 46.1334C31.1203 45.7991 30.6693 46.0219 30.6693 46.802C30.6693 47.4705 31.1203 48.362 31.7969 48.6963C32.4734 49.0306 32.9244 48.8077 32.9244 48.0277C32.9244 47.2477 32.4734 46.4677 31.7969 46.1334Z" fill="url(#paint4_linear_1_579)"/>
<path d="M31.5713 46.5782C31.1203 46.3554 30.782 46.4668 30.782 47.024C30.782 47.4697 31.1203 48.1383 31.5713 48.3611C32.0223 48.584 32.3606 48.4726 32.3606 47.9154C32.3606 47.4697 32.0223 46.8011 31.5713 46.5782Z" fill="url(#paint5_linear_1_579)"/>
<path d="M86.8217 28.637L86.709 28.9713V29.0827L86.2579 29.6399L85.5814 30.0856L84.6793 30.4199L83.6646 30.6427H82.537L81.5222 30.5313L80.5074 30.3085L79.4926 29.8627V30.977V32.0914L80.5074 32.5371L81.5222 32.7599L82.537 32.8714H83.6646L84.6793 32.6485L85.4686 32.3142H85.5814L86.2579 31.8685L86.709 31.4228V31.3113L86.8217 30.7542V29.6399V28.637Z" fill="url(#paint6_linear_1_579)"/>
<path d="M52.7701 43.9042L52.6574 43.0127V42.567V42.3441L52.8829 40.2269L50.6278 41.4527L51.3043 42.6784L51.1916 42.7898L51.0788 42.9013L51.1916 43.0127H51.3043L51.417 43.1242L51.5298 43.2356V43.347V43.4584L51.0788 43.7927L50.9661 44.4613L51.6426 44.3499L52.0936 44.2385L51.6426 44.5728L52.8829 45.0185V44.907V44.0156V43.9042H52.7701Z" fill="#98AD9D"/>
<path d="M85.131 26.9659C85.131 27.6345 84.2289 28.1916 83.1014 28.1916C81.9738 28.1916 81.0718 27.6345 81.0718 26.9659C81.0718 26.2973 81.9738 25.7402 83.1014 25.7402C84.2289 25.7402 85.131 26.2973 85.131 26.9659Z" fill="#F9F9F9"/>
<path d="M57.3943 41.1184L56.4922 41.787L54.4626 43.0127H53.7861V43.9042L55.8157 42.7898L56.605 42.3441L59.3111 40.7841H59.4239V40.2269L57.3943 41.1184Z" fill="#B2C9B6"/>
<path d="M52.7704 43.9053H52.996H53.6725V43.0139H52.6577L52.7704 43.9053Z" fill="#B2C9B6"/>
<path d="M52.8832 40.5603L52.7704 41.1174L52.6577 42.3432V43.0118H53.6725H54.3491V39.2231L52.8832 40.5603Z" fill="#98AD9D"/>
<path d="M57.7321 35.9934L57.6193 36.1048L57.3939 36.2163V36.1048V35.9934L56.1535 36.3277L55.1387 37.9992L55.5897 38.4449V38.6678L55.477 38.7792L54.4622 39.3364V43.1251L56.4918 41.8993L57.3939 41.1193L59.3107 40.2278L60.7765 39.5592V34.6562L57.7321 35.9934Z" fill="#98AD9D"/>
<path d="M46.4561 10.9212L46.0051 10.4754V10.364L45.7795 9.91826V10.9212V11.924L45.8923 12.3698L46.0051 12.5926L46.3433 13.0384L47.2454 13.4841V13.0384V12.4812V11.3669L46.4561 10.9212Z" fill="white"/>
<path fill-rule="evenodd" clip-rule="evenodd" d="M33.8257 32.6505L34.9533 33.0963L33.4875 37.4421L32.8109 41.3423V47.0253L32.5854 46.5796L32.3599 46.3567L32.0216 46.1338L31.7961 46.0224H31.4579L31.3451 46.1338V40.3394L31.9089 36.5507L33.262 32.762H33.8257V32.6505Z" fill="url(#paint7_linear_1_579)"/>
<path d="M19.8447 32.0921L18.9427 32.5379L17.9279 32.6493L16.8003 32.7607L15.7855 32.6493L15.6727 32.5379L14.7707 32.4265V32.315L14.2069 32.0921L15.4472 32.7607L15.56 32.8722L15.6727 32.9836L16.3493 33.095L16.9131 33.2065H17.5896L18.2661 33.095L18.7172 32.9836L18.8299 32.8722L20.4085 32.315V31.8693L19.8447 32.0921Z" fill="#98AD9D"/>
<path d="M66.9759 43.9052L68.1034 43.348L67.4269 38.7793L66.2993 39.4479L66.9759 43.9052Z" fill="#B2C9B6"/>
<path d="M66.8627 49.8087L67.8776 49.3629L67.9903 49.2515V49.1401V48.6944V48.5829V48.3601V43.3456L66.75 44.0142V49.8087H66.8627Z" fill="#B2C9B6"/>
<path d="M50.9662 56.9418L51.1918 57.0532L51.53 57.1647L51.7555 57.3876L52.0938 57.6104L52.2065 57.9447L52.3193 58.0562V52.2617L51.1918 51.5931L50.8534 51.7045L50.7407 51.816V57.1647L50.9662 56.9418Z" fill="#98AD9D"/>
<path d="M66.3005 39.4476L67.4281 38.779L65.9623 32.8731L64.8347 33.3188L66.3005 39.4476Z" fill="#B2C9B6"/>
<path d="M71.9384 31.9807L72.0512 32.4264H79.7186V31.9807H71.9384Z" fill="#B2C9B6"/>
<path d="M84.6793 32.6509L83.6646 32.8738H82.537L81.5222 32.7623L80.5074 32.5395L79.4926 32.0937V32.5395L81.2966 33.0966L81.9732 33.2081L82.537 33.3195H83.3263L84.0028 33.2081L84.4539 33.0966L85.4686 32.4281L84.6793 32.6509Z" fill="#B2C9B6"/>
<path d="M54.1235 46.692L54.0108 46.1348L53.6725 45.6891L53.5598 45.5777L53.2215 45.3548L52.8832 45.2434H52.7704L52.6577 45.1319L52.5449 45.0205L51.8684 44.4634V44.5748L51.9811 44.6862L52.0939 44.7976C51.4174 44.5748 50.7408 44.3519 49.9515 44.3519C47.6964 44.3519 45.7795 45.3548 45.7795 46.692C45.7795 48.0292 47.5837 49.0321 49.9515 49.0321C50.0643 49.0321 50.0643 49.0321 50.0643 49.0321H50.1771H50.6281C50.7409 49.0321 50.7408 49.0321 50.8536 49.0321L51.3046 48.9206L52.2067 48.6977L52.996 48.252L53.6725 47.8063L54.0108 47.2491V47.1377L54.1235 47.0263V46.692Z" fill="url(#paint8_linear_1_579)"/>
<path d="M53.8984 9.6938L53.7857 10.1395V10.251L53.3346 10.8081L52.7708 11.2538L52.207 11.5881V12.591V13.7053V13.8168L52.6581 13.4825H52.7708L53.3346 13.0368L53.7857 12.3682L53.8984 11.9224V10.8081V9.6938Z" fill="url(#paint9_linear_1_579)"/>
<path d="M20.2964 29.5293V30.5322V31.6466H27.9638V30.5322V29.5293H20.2964Z" fill="#B2C9B6"/>
<path d="M35.8554 33.2074L34.9533 32.9845L33.4875 37.3303L34.6151 36.7732L35.8554 33.2074Z" fill="#B2C9B6"/>
<path d="M47.6955 44.0167L47.8083 43.0139H46.7935V43.9053H47.5828L47.6955 44.0167Z" fill="#98AD9D"/>
<path d="M44.3133 36.3261L42.8475 35.769V36.2147L42.7347 36.1033L42.3964 35.9918L39.3521 34.4318V39.3348L40.7051 40.0034L42.8475 41.0063L43.6368 41.5634L45.8919 43.0121L46.0046 38.6662L44.3133 36.3261Z" fill="url(#paint10_linear_1_579)"/>
<path d="M45.8928 43.0127L43.6377 41.5641L42.8484 41.1184L40.5933 40.0041V40.5612L40.706 40.6727H40.8188L40.9315 40.7841L41.157 40.8955L41.6081 41.1184L42.0591 41.3413L42.3973 41.5641L42.8484 41.787L43.2994 42.0099L43.6377 42.1213L43.7504 42.2327H43.8632L43.976 42.3441L45.78 43.347L46.0056 43.4585H46.1184L46.5693 43.7927H46.6821V42.9013H45.8928V43.0127Z" fill="url(#paint11_linear_1_579)"/>
<path d="M47.6964 42.7896L46.7944 39.5581L45.8923 38.6667L45.7795 43.0125H46.5689H47.5837V42.7896H47.6964Z" fill="#98AD9D"/>
<path d="M61.1139 34.0976L58.746 35.3234L57.7312 35.9919L60.7756 34.6548L61.1139 34.4319L63.4817 33.7633L64.7221 33.3176L65.9624 32.8719L66.0751 32.7604V32.3147L61.1139 34.0976Z" fill="#B2C9B6"/>
<path d="M71.9384 29.8649V30.9792L71.8257 31.9821L79.6058 32.0935V30.9792V29.8649H71.9384Z" fill="url(#paint12_linear_1_579)"/>
<path d="M52.3201 51.0353L51.3052 51.2582L50.2904 51.3696H49.2756L48.2607 51.1468L47.5842 50.9239L48.599 51.4811L49.0501 51.5925L49.7266 51.7039H50.2904H50.7414L50.8542 51.5925L51.1925 51.4811L51.5307 51.3696L51.6435 51.2582L52.2073 51.0353L52.7711 50.5896L52.3201 51.0353Z" fill="#B2C9B6"/>
<path d="M66.2997 39.4469L64.8338 33.3181L63.5935 33.7639L64.8338 38.5555L66.2997 39.4469Z" fill="#98AD9D"/>
<path d="M53.3346 50.4807L53.2218 50.5921L52.8836 50.7036L52.7708 50.815L52.207 51.2607L52.3198 52.2636L53.4474 51.7065L53.3346 50.4807Z" fill="#98AD9D"/>
<path d="M51.6421 51.4807L51.1912 51.5921L52.3187 52.2607L52.2059 51.2578L51.6421 51.4807Z" fill="#98AD9D"/>
<path d="M52.4306 58.0546L53.4454 57.4974V57.386V57.1631V56.7174V56.2716V55.8259V55.603V55.3802V55.2688V51.4801L52.3179 52.0372L52.4306 58.0546Z" fill="#B2C9B6"/>
<path d="M65.2858 43.0125L66.8644 44.0154L66.9772 43.9039L66.3006 39.4467L64.722 38.4438L65.2858 43.0125Z" fill="#98AD9D"/>
<path d="M65.2856 48.8083H65.3984L65.5111 48.6969H65.7366L66.0749 48.8083L66.4132 48.9198L66.6387 49.2541L66.8642 49.5884V49.6998V43.9053L65.2856 43.0139V48.8083Z" fill="#98AD9D"/>
<path d="M20.2952 29.5285L19.8442 29.8628L18.9421 30.1971L17.9273 30.4199H16.7997L15.7849 30.3085L14.7701 30.0856L13.9808 29.6399L13.4171 29.1942V29.0827L13.0788 28.637L12.966 28.5256L12.8533 28.0799V29.3056V30.1971L12.966 30.4199L13.0788 30.7542L13.3043 31.1999L13.9808 31.6456L14.0936 31.7571L14.2064 31.8685L14.7701 32.0914V32.2028L15.6722 32.3142L15.7849 32.4257L16.7997 32.5371L17.9273 32.4257L18.9421 32.3142L19.7314 31.98L19.8442 31.8685L20.2952 31.5342V30.4199V29.5285Z" fill="url(#paint13_linear_1_579)"/>
<path d="M66.076 30.3106V32.4278L71.9394 31.9821L72.0522 29.8649L66.076 30.3106Z" fill="#36A94C"/>
<path d="M66.0733 30.3087L61.1121 31.9801L58.7442 33.2059L56.3763 34.5431L53.4447 37.3289V37.4403V37.5517L52.9937 39.3346L53.3319 39.1118L53.4447 39.0003L55.0232 37.886L55.136 37.9975L56.1508 37.106L56.4891 36.6603L57.5039 36.1031L57.6166 35.9917L57.7294 35.8803H57.8422L58.857 35.2117L61.2248 33.9859L66.1861 32.3144V31.2001V30.3087H66.0733Z" fill="url(#paint14_linear_1_579)"/>
<path d="M48.8236 10.0282L47.8088 9.02533L47.5833 8.69103L47.4705 8.35673V7.91101L47.5833 7.57671L47.9215 7.46529L46.6812 8.13387L46.2302 8.5796L45.7791 9.13676L45.6664 9.24819V9.80535V9.91678L45.7791 10.3625V10.4739L46.2302 10.9197H46.3429L47.1322 11.4768V12.5911V13.1483V13.594V15.1541V15.3769V15.9341V16.0455L46.4557 19.0542L44.0878 21.3943L45.2153 20.6142L47.9215 17.9399L48.0343 17.717L48.8236 14.4855H48.9364L48.8236 10.0282Z" fill="url(#paint15_linear_1_579)"/>
<path d="M27.9635 29.5293V31.6465L33.8269 32.0923V29.9751L27.9635 29.5293Z" fill="#2C973C"/>
<path d="M66.076 32.4264V32.8721L71.9394 32.4264L71.8267 31.9807L66.076 32.4264Z" fill="#2C973C"/>
<path d="M46.9076 37.5537V37.4423L43.8632 34.6565L41.2698 33.2078L38.7892 31.7592L33.8279 30.0877V31.2021V32.2049L38.7892 33.8764H38.9019L41.3826 35.3251H41.4953L41.6081 35.4365L41.7208 35.5479H41.8336L41.9464 35.6593H42.0591V35.7708H42.1719L42.2846 35.8822H42.3973L42.5101 35.9936H42.6229V36.1051H42.7357L42.8484 36.2165L43.0739 36.3279L44.3142 36.9965L44.6525 37.3308L46.3438 38.8909L47.2459 39.7823L48.148 43.0139V42.011V41.0081L46.9076 37.5537Z" fill="url(#paint16_linear_1_579)"/>
<path d="M53.1086 19.1669L52.3193 15.8239V13.7067V13.5953V12.481V11.4781L52.8831 11.1438L53.4469 10.698L53.8979 10.1409V10.0295L54.0107 9.58372V9.4723L53.8979 8.91514L52.5448 8.24654L52.4321 8.1351L52.3193 8.4694L52.2065 8.8037L51.7556 9.138L50.7407 10.0295V14.3753L51.6428 17.6068L51.8683 17.8297L54.3489 20.5041L55.702 21.3955L53.1086 19.1669Z" fill="#B2C9B6"/>
<path d="M42.2839 35.8809L42.1712 35.7694H42.0584L41.9456 35.658H41.8328V35.5466H41.7201L41.6074 35.4351L41.4946 35.3237L41.3818 35.2123H41.269L38.7885 33.7636H38.6757L33.8272 32.2036L27.9638 31.7579H20.2964V32.2036H27.9638L33.1506 32.6493H33.8272L34.9547 33.0951L35.8568 33.3179L38.9012 34.3208L39.2394 34.4322L42.2839 35.8809Z" fill="#98AD9D"/>
<path d="M27.9635 27.3005V29.6406L33.8269 30.0863V27.7462L27.9635 27.3005Z" fill="#36A94C"/>
<path d="M20.2948 27.3012L18.7162 27.8583L18.2652 27.9698L17.5886 28.0812H17.0248H16.3483L15.7845 27.8583L15.4463 27.7469L14.9952 27.4126L14.8825 27.0783L14.7697 26.744L14.8825 26.5211L14.5442 26.6326L14.0932 26.744V26.8554L13.7549 26.9668L13.3039 27.4126L13.1911 27.524L13.0784 27.9698V28.0812L13.1911 28.5269L13.3039 28.6383L13.6422 29.0841V29.1955L14.2059 29.6412L14.9952 30.087L16.01 30.3098L17.0248 30.4212H18.1524L19.1672 30.1984L20.0692 29.8641L20.5203 29.5298H28.1877V27.1897H20.2948V27.3012Z" fill="url(#paint17_linear_1_579)"/>
<path d="M48.4862 35.9922L45.78 33.095L42.5101 31.0892L38.9019 29.3063L33.8279 27.7462V30.0863L38.7892 31.7578L41.2698 33.2064L43.8632 34.655L46.9076 37.4408V37.5523L47.6969 40.7838V41.7867V42.7895V43.1238V44.0153L47.9224 43.7924L48.9373 43.3467V43.2353L49.05 43.1238L49.2755 42.7895V39.4466L48.4862 35.9922Z" fill="url(#paint18_linear_1_579)"/>
<path d="M33.8269 27.7475V25.9646L27.9635 26.4103V27.3018L33.8269 27.7475Z" fill="#8ADB95"/>
<path d="M14.8833 27.0777L14.9961 27.412L15.4471 27.7463L15.8981 27.8577L16.4619 28.0806H17.1385H17.7022L18.3787 27.9692L18.8298 27.8577L20.4084 27.3006H28.0758V26.4091L20.2956 26.2977L18.0405 25.5177L18.717 27.3006L18.3787 27.5235L18.0405 27.6349L17.5895 27.7463L17.1385 27.8577L16.5747 27.7463L16.1236 27.6349L15.7854 27.5235L15.4471 27.3006L15.3344 27.0777L15.4471 26.8549L15.5598 26.5205L15.2216 26.0748H15.1088L14.9961 26.1863L14.7706 26.632H14.6578L14.545 26.8549L14.8833 27.0777Z" fill="#F9F9F9"/>
<path d="M53.3333 26.8562V26.1876H53.1078C52.9951 25.9648 52.6568 25.7419 52.4313 25.519C51.0782 24.739 48.8231 24.739 47.5828 25.519C47.2446 25.6305 47.019 25.9648 46.9062 26.1876H46.6808V26.9677C46.6808 27.4134 47.019 27.9705 47.6955 28.3048C49.0486 29.0848 51.3037 29.0848 52.544 28.3048C53.1078 27.9705 53.4461 27.4134 53.3333 26.8562Z" fill="#B2C9B6"/>
<path d="M52.4311 27.6346C53.7842 26.8546 53.6714 25.6289 52.4311 24.8489C51.078 24.0688 48.8229 24.0688 47.5826 24.8489C46.2295 25.6289 46.3423 26.8546 47.5826 27.6346C48.8229 28.4147 51.078 28.4147 52.4311 27.6346Z" fill="#FAFAFA"/>
<path d="M66.0751 27.8576L61.0011 29.5291L57.6184 31.2006L54.574 33.0949L51.7551 35.9921L51.6423 36.1036V36.4379L50.9658 39.2237V40.7837L51.9806 40.1151L52.9954 39.4465L53.4465 37.6636V37.5522V37.4408L56.3781 34.655L58.7459 33.3178L61.1139 32.092L66.0751 30.4205V27.8576Z" fill="url(#paint19_linear_1_579)"/>
<path d="M71.9394 27.5233L66.076 27.9691V30.3092L71.9394 29.8634V27.5233Z" fill="#36A94C"/>
<path d="M86.8222 28.304C86.8222 27.3012 85.9202 26.5211 84.7926 26.5211C83.7778 26.5211 82.8758 27.1897 82.763 28.0812H83.3268L83.7778 27.9698L84.116 27.8583L84.4543 27.6354L84.5671 27.524V27.3012L85.1309 27.524L84.7926 27.7469L84.4543 27.9698L84.0033 28.0812L83.3268 28.1926H82.763H82.6502L82.1992 28.0812L81.6354 27.9698L79.8313 27.3012H72.0511V29.6413L79.8313 29.7527L80.7333 30.1984L81.7482 30.4213L82.763 30.5327L83.7778 30.4213L84.7926 30.3098L85.6946 29.9755L86.3711 29.5298L86.4839 29.4184C86.5967 29.3069 86.7094 29.1955 86.8222 28.9727L86.9349 28.8612L87.0477 28.7498C86.8222 28.5269 86.935 28.4155 86.8222 28.304L86.9349 28.1926V28.0812C86.8222 28.4155 86.8222 28.4155 86.8222 28.304Z" fill="url(#paint20_linear_1_579)"/>
<path d="M71.9394 27.5225L72.0522 26.631H71.9394L66.076 26.1853V27.9682L71.9394 27.5225Z" fill="#8ADB95"/>
<path d="M51.6434 36.5493V36.2151L51.7562 36.1036L54.5751 33.2064L57.5067 31.2006L61.0021 29.5291L66.0762 27.9691V26.1862L61.0021 24.6261L57.394 22.7318L55.5898 21.506L54.3495 20.726L51.7562 18.0516L51.6434 17.9402L50.6286 14.5973V10.2514L51.6434 9.35994L52.0944 9.02566L52.2071 8.69136L52.3199 8.35706L51.6434 7.91134V8.35706L51.5306 8.4685V8.57992L51.1924 8.80278L51.0796 8.91422L50.8541 9.02566L50.6286 9.24852H50.5158L50.0648 9.35994H49.6138L49.1627 9.24852L48.7117 9.13708L48.4862 9.02566L48.3735 8.91422L48.2607 8.80278V8.69136L48.1479 8.57992H48.0351V8.35706H47.9224V8.02276L48.4862 7.24274L47.5842 7.68846L47.4714 8.02276V8.4685L47.5842 8.80278L47.8097 9.13708L48.8245 10.2514L48.9373 14.5973L48.1479 17.8288L47.9224 18.0516L45.329 20.726L44.0887 21.506L42.3973 22.6203L38.9019 24.2918L33.8279 25.8519V27.7462L38.9019 29.3063L42.5101 31.0892L45.6673 33.2064L48.4862 36.1036L49.2755 39.3351V42.7895L49.3882 42.6781L49.501 42.5667L49.6138 42.4553L49.7265 42.2324L49.952 42.1209L50.0648 41.4524L50.2903 41.2295L50.6286 41.1181L50.7413 41.0066L50.6286 39.4466L51.6434 36.5493ZM49.952 28.7491L49.05 28.6377L48.2607 28.5263L47.5842 28.3034L47.1331 27.9691L47.0204 27.8577L46.6821 27.4119V27.1891L46.5693 26.9662V26.5205V26.4091L46.6821 25.9633L47.1331 25.5176L47.2459 25.4061L47.6969 25.0719H47.8097H47.9224L48.2607 24.9604L48.7117 24.849C49.3883 24.5147 50.2903 24.5147 51.5306 24.849H51.6434L52.3199 25.1833L52.7709 25.5176L52.8837 25.629L53.222 26.0747L53.3347 26.1862L53.4475 26.6319V26.7433V27.0776L53.3347 27.5234V27.6348L52.8837 27.8577V27.9691L52.4327 28.4148L51.7562 28.6377L50.9669 28.8605H49.952V28.7491Z" fill="url(#paint21_linear_1_579)"/>
<path d="M79.6057 27.5231L81.4099 28.1917L81.9736 28.3031L82.5374 28.4145H82.6502V28.3031C82.6502 28.1917 82.6502 28.1917 82.6502 28.0803H82.1992L81.7481 27.9688L81.2971 27.8574L81.0716 27.6345V27.4117V27.3002L81.5226 27.1888L82.3119 25.8516L79.6057 26.8545H71.9384V27.7459L79.6057 27.5231Z" fill="url(#paint22_linear_1_579)"/>
<path d="M82.7637 28.3037H83.3275L83.8912 28.1923L84.3422 27.9695L84.7933 27.7466L85.0188 27.4123L84.455 27.1894V27.3008L84.3422 27.4123L84.004 27.6351L83.6657 27.7466L83.2147 27.858H82.7637C82.7637 28.0809 82.7637 28.1923 82.7637 28.3037Z" fill="#F9F9F9"/>
<path d="M46.7948 3.45438L42.9611 0C43.6376 0 44.0887 0.111435 44.2014 0.334298L48.3734 3.00865L47.5841 3.45438H46.7948Z" fill="#576779"/>
<path d="M46.5673 3.67723L42.7336 0.222859L42.8464 0H42.9591L46.7929 3.45437L46.5673 3.67723Z" fill="#2C343D"/>
<path d="M46.9061 3.67682L47.4699 3.23108L48.2592 2.8968L48.9358 2.67392L49.2741 3.00822L47.2445 3.89968L46.9061 3.67682Z" fill="#414D5B"/>
<path d="M46.9081 3.67897V3.79071L46.5681 3.67897L46.6815 3.45549L46.9081 3.67897Z" fill="#2C343D"/>
<path d="M48.4864 3.90126L48.5991 4.23554L47.2461 3.90126L49.2757 3.12123L49.5013 4.01269L48.7119 3.90126H48.4864Z" fill="#414D5B"/>
<path d="M48.4864 4.23488L48.3737 4.45774L47.1333 4.01202L47.2461 3.78914L48.4864 4.23488Z" fill="#2C343D"/>
<path d="M47.4699 3.34377L46.9062 3.7895L46.7935 3.56663L47.4699 3.34377Z" fill="#576779"/>
<path d="M47.2462 3.90088L47.1328 4.12435L46.9061 3.90088V3.78914L47.2462 3.90088Z" fill="#2C343D"/>
<path d="M51.4155 8.46818V8.02246H51.1901C51.0773 7.91103 51.0773 7.91101 50.8517 7.79958C50.1752 7.35385 49.0477 7.35385 48.3712 7.79958C48.2584 7.91101 48.1456 7.91103 48.0328 8.02246H47.8074V8.57962C47.8074 8.80248 48.0329 9.02533 48.3712 9.2482C49.0477 9.69392 50.1752 9.69392 50.8517 9.2482C51.3028 9.02533 51.4155 8.80247 51.4155 8.46818Z" fill="url(#paint23_linear_1_579)"/>
<path d="M50.9654 7.24308C50.2889 6.79735 49.1613 6.79735 48.4848 7.24308C47.8083 7.6888 47.8083 8.24597 48.4848 8.69169C49.1613 9.13742 50.2889 9.13742 50.9654 8.69169C51.642 8.3574 51.642 7.6888 50.9654 7.24308Z" fill="#FAFAFA"/>
<path d="M51.0789 7.91236V5.57228H48.3728V8.02379C48.3728 8.13522 48.4855 8.46952 48.8238 8.58095C49.2748 8.91524 50.1769 8.91524 50.628 8.58095C50.8535 8.35808 51.0789 8.13523 51.0789 7.91236Z" fill="url(#paint24_linear_1_579)"/>
<path d="M50.6278 4.90542C50.1767 4.57112 49.2746 4.57112 48.8236 4.90542C48.3726 5.23971 48.3726 5.68544 48.8236 6.01974C49.2746 6.35404 50.1767 6.35404 50.6278 6.01974C51.0788 5.68544 51.0788 5.23971 50.6278 4.90542Z" fill="url(#paint25_linear_1_579)"/>
<path d="M50.4022 4.68071C49.9512 4.45785 49.2746 4.45785 48.8236 4.68071C48.3726 4.90358 48.3726 5.34931 48.8236 5.57217C49.2746 5.79504 49.9512 5.79504 50.4022 5.57217C50.8533 5.34931 50.8533 5.01501 50.4022 4.68071Z" fill="url(#paint26_linear_1_579)"/>
<path d="M49.1612 5.0158C49.274 4.90437 49.4995 4.79292 49.6123 4.79292C49.8378 4.79292 50.0633 4.90437 50.0633 5.0158H50.1761V5.12723C50.1761 5.23866 49.9505 5.57297 49.6123 5.57297C49.274 5.57297 49.0485 5.46152 49.0485 5.12723L49.1612 5.0158Z" fill="#B2C9B6"/>
<path d="M48.4854 4.01199C48.4854 4.12343 48.4854 4.12343 48.4854 4.01199C48.4854 4.12343 48.4854 4.12343 48.4854 4.01199C48.4854 4.12343 48.4853 4.12342 48.5981 4.12342L50.064 5.12632C50.1767 5.23775 50.6277 5.23774 50.8532 5.23774C50.8532 5.23774 50.8532 5.23774 50.966 5.23774C50.966 5.23774 51.0787 5.23775 51.0787 5.12632V5.57204C51.0787 5.68347 50.966 5.68347 50.966 5.7949C50.966 5.7949 50.9659 5.7949 50.8532 5.7949C50.6277 5.90633 50.1767 5.90634 50.064 5.68348L48.5981 4.68058C48.4853 4.56915 48.4854 4.56915 48.4854 4.45772V4.01199Z" fill="url(#paint27_linear_1_579)"/>
<path d="M51.0787 5.01423C50.966 5.12566 50.966 5.12566 51.0787 5.01423C51.0787 5.12566 51.0787 5.12566 51.0787 5.01423C50.966 5.12566 50.966 5.12567 50.966 5.12567C50.966 5.12567 50.9659 5.12567 50.8532 5.12567C50.6277 5.2371 50.1767 5.23709 50.064 5.01423L48.5981 4.01135C48.5981 4.01135 48.4854 4.01134 48.4854 3.89991C48.4854 3.78848 48.5981 3.78848 48.5981 3.67705C48.5981 3.67705 48.5981 3.67705 48.7109 3.67705C48.9364 3.56562 49.3874 3.56561 49.5002 3.78847L50.8532 4.79137C50.9659 4.9028 51.0787 5.01423 51.0787 5.01423Z" fill="#FAFAFA"/>
<path d="M49.1612 4.45933C49.274 4.3479 49.4995 4.23645 49.6123 4.23645C49.8378 4.23645 50.0633 4.3479 50.0633 4.45933H50.1761V4.57075C50.1761 4.68219 49.9505 5.0165 49.6123 5.0165C49.274 5.0165 49.0485 4.90505 49.0485 4.57075L49.1612 4.45933Z" fill="#B2C9B6"/>
<path d="M49.0485 4.45774C49.0485 4.56917 49.3867 4.79204 49.6123 4.79204C49.9505 4.79204 50.1761 4.68059 50.1761 4.3463C50.1761 4.23487 49.9505 3.90059 49.6123 3.90059C49.3867 4.12345 49.0485 4.23488 49.0485 4.45774Z" fill="#FAFAFA"/>
<path d="M49.9507 6.1298L49.8372 5.68408V5.4612L50.0644 6.1298V6.24124L49.9507 6.1298Z" fill="#2C343D"/>
<path d="M50.2904 6.46401L50.1771 6.35227V6.24054L50.6305 6.57574L50.5171 6.68749L50.2904 6.46401Z" fill="#2C343D"/>
<path d="M50.4027 6.68595L50.5163 6.57451L50.6299 7.46596L50.4027 6.68595Z" fill="#2C343D"/>
<path d="M52.432 5.6837L51.0789 7.02087L50.7407 7.46659L50.5151 6.57514L52.432 5.6837Z" fill="#414D5B"/>
<path d="M52.5443 5.57228L52.7698 5.68372L51.0785 6.90948L52.5443 5.57228Z" fill="#414D5B"/>
<path d="M52.4305 5.68438L50.5136 6.57584L50.0626 6.24154L52.0922 5.35008H52.205L52.4305 5.68438Z" fill="#414D5B"/>
<path d="M49.9521 5.57137L50.1777 5.45994H50.4032H50.5159L50.8542 5.23708L50.967 5.12566V5.01422L52.0945 5.45994L50.0649 6.35138L49.9521 5.57137Z" fill="#414D5B"/>
<path d="M55.7017 9.91655H55.5889L50.8531 7.46505L51.1915 7.01931L52.8828 5.79356L52.9956 5.90499L53.1083 6.01642L53.4466 6.35072V6.46215L56.6038 9.69369L55.9272 9.91655H55.7017Z" fill="#576779"/>
<path d="M55.9281 9.91826L56.0414 10.03L55.8147 10.1417L55.7014 9.91826H55.9281Z" fill="#2C343D"/>
<path d="M56.4907 9.6938L56.6035 9.80522L55.9269 10.0281V9.91665L56.4907 9.6938Z" fill="#2C343D"/>
<path d="M55.7037 9.91826L55.8184 10.1434L55.5889 10.0308V9.91826H55.7037Z" fill="#2C343D"/>
<path d="M51.9808 8.24531L51.5298 8.02244L51.4171 7.91101L51.0788 7.68815H50.9661L50.6278 7.46529H50.7405L55.4763 9.91678V10.0282L53.785 9.24818L53.5595 9.13676L51.9808 8.24531Z" fill="#2C343D"/>
<path d="M79.9445 21.9522L76.1107 18.4978C76.7873 18.4978 77.2383 18.6092 77.351 18.8321L81.523 21.5064L80.7337 21.9522H79.9445Z" fill="#576779"/>
<path d="M79.832 22.175L75.9983 18.8321L76.111 18.4978H76.2237L79.9448 21.9522L79.832 22.175Z" fill="#2C343D"/>
<path d="M80.0559 22.1742L80.7324 21.84L81.5217 21.3942L82.1983 21.2828L82.5365 21.5056L80.3942 22.3971L80.0559 22.1742Z" fill="#414D5B"/>
<path d="M80.0601 22.1745V22.2863L79.8323 22.1745L79.9462 21.9511L80.0601 22.1745Z" fill="#2C343D"/>
<path d="M81.6343 22.5114V22.8457L80.3939 22.4L82.5363 21.5085L82.7619 22.4L81.9725 22.2885L81.6343 22.5114Z" fill="#414D5B"/>
<path d="M81.6363 22.8437L81.5235 22.9552L80.2832 22.5095V22.398L81.6363 22.8437Z" fill="#2C343D"/>
<path d="M80.7346 21.9511L80.058 22.1739L79.9453 21.9511H80.7346Z" fill="#576779"/>
<path d="M80.3958 22.5092V22.6209L80.0559 22.3974V22.1739L80.3958 22.5092Z" fill="#2C343D"/>
<path d="M84.6799 27.0789V26.6332H84.4545C84.3417 26.5218 84.3417 26.5218 84.1161 26.4103C83.4396 25.9646 82.3121 25.9646 81.6356 26.4103C81.5228 26.5218 81.41 26.5218 81.2972 26.6332H81.0718V27.1903C81.0718 27.4132 81.2973 27.6361 81.6356 27.8589C82.3121 28.3047 83.4396 28.3047 84.1161 27.8589C84.4544 27.5246 84.6799 27.3018 84.6799 27.0789Z" fill="url(#paint28_linear_1_579)"/>
<path d="M84.1173 25.8527C83.328 25.5184 82.2005 25.5184 81.6367 25.8527C80.9601 26.2984 80.9601 26.8555 81.6367 27.3013C82.3132 27.747 83.4408 27.747 84.1173 27.3013C84.7939 26.967 84.7939 26.2984 84.1173 25.8527Z" fill="url(#paint29_linear_1_579)"/>
<path d="M84.2285 26.5197V24.1796H81.5223V26.6311C81.5223 26.7425 81.6351 27.0768 81.9734 27.1882C82.4244 27.5225 83.3264 27.5225 83.7774 27.1882C84.1157 26.9654 84.2285 26.7425 84.2285 26.5197Z" fill="url(#paint30_linear_1_579)"/>
<path d="M83.7774 23.5127C83.3263 23.1784 82.4243 23.1784 81.9733 23.5127C81.5223 23.847 81.5223 24.2927 81.9733 24.627C82.4243 24.9613 83.3263 24.9613 83.7774 24.627C84.3411 24.1813 84.3411 23.7356 83.7774 23.5127Z" fill="url(#paint31_linear_1_579)"/>
<path d="M83.5518 23.2899C83.1008 23.067 82.4243 23.067 81.9733 23.2899C81.5223 23.5128 81.5223 23.9585 81.9733 24.1814C82.4243 24.4043 83.1008 24.4043 83.5518 24.1814C84.0028 23.8471 84.0028 23.5128 83.5518 23.2899Z" fill="url(#paint32_linear_1_579)"/>
<path d="M82.4238 23.6231C82.5365 23.5117 82.7621 23.4002 82.8748 23.4002C83.1003 23.4002 83.3259 23.5117 83.3259 23.6231H83.4386V23.7345C83.4386 23.8459 83.2131 24.1802 82.8748 24.1802C82.5365 24.1802 82.311 24.0688 82.311 23.7345L82.4238 23.6231Z" fill="url(#paint33_linear_1_579)"/>
<path d="M81.635 22.6209C81.635 22.7323 81.635 22.7323 81.635 22.6209C81.635 22.7323 81.635 22.7323 81.7477 22.7323L83.2136 23.7352C83.4391 23.8466 83.7774 23.8466 84.0029 23.8466C84.0029 23.8466 84.0029 23.8466 84.1156 23.8466C84.1156 23.8466 84.2284 23.8466 84.2284 23.7352V24.1809C84.2284 24.2923 84.1156 24.2924 84.1156 24.4038C84.1156 24.4038 84.1156 24.4038 84.0029 24.4038C83.7774 24.5152 83.3263 24.5152 83.2136 24.2924L81.9733 23.0666C81.8605 22.9552 81.8605 22.9552 81.8605 22.8438V22.6209H81.635Z" fill="url(#paint34_linear_1_579)"/>
<path d="M84.2284 23.6235C84.1157 23.7349 84.1156 23.7349 84.1156 23.7349C84.1156 23.7349 84.1156 23.7349 84.0029 23.7349C83.7774 23.8464 83.3263 23.8463 83.2136 23.6235L81.7477 22.6206C81.7477 22.6206 81.635 22.6206 81.635 22.5091C81.635 22.3977 81.7477 22.3977 81.7477 22.2863C81.7477 22.2863 81.7477 22.2863 81.8605 22.2863C82.086 22.1748 82.537 22.1748 82.6498 22.3977L84.1156 23.4006C84.2284 23.4006 84.2284 23.512 84.2284 23.6235Z" fill="#FAFAFA"/>
<path d="M82.4238 23.0666C82.5365 22.9552 82.7621 22.8437 82.8748 22.8437C83.1003 22.8437 83.3259 22.9552 83.3259 23.0666H83.4386V23.178C83.4386 23.2894 83.2131 23.6238 82.8748 23.6238C82.5365 23.6238 82.311 23.5123 82.311 23.178L82.4238 23.0666Z" fill="url(#paint35_linear_1_579)"/>
<path d="M82.311 23.0666C82.311 23.178 82.5365 23.5124 82.8748 23.5124C83.2131 23.5124 83.4386 23.4009 83.4386 23.0666C83.4386 22.9552 83.2131 22.6209 82.8748 22.6209C82.5365 22.7323 82.311 22.8437 82.311 23.0666Z" fill="#FAFAFA"/>
<path d="M83.2146 24.7371L83.1016 24.2913V24.0685L83.4407 24.7371L83.3277 24.8485L83.2146 24.7371Z" fill="#2C343D"/>
<path d="M83.4402 25.0716L83.3269 24.8482L83.4402 24.7364L83.7802 25.0716L83.6669 25.1834L83.4402 25.0716Z" fill="#2C343D"/>
<path d="M83.5524 25.1837L83.8915 25.9637L83.7784 26.0751L83.5524 25.1837Z" fill="#2C343D"/>
<path d="M85.5818 24.1796L84.2287 25.5167L83.8904 25.9625L83.6649 25.071L85.5818 24.1796Z" fill="#414D5B"/>
<path d="M85.694 24.1796L85.8067 24.291L84.2281 25.5168L85.694 24.1796Z" fill="#414D5B"/>
<path d="M85.582 24.1799L83.6652 25.0714L83.3269 24.7371L85.3565 23.8456L85.4692 23.9571L85.582 24.1799Z" fill="#414D5B"/>
<path d="M82.989 24.0685H83.3273L83.5528 23.9571H83.6656L84.1166 23.7342L84.2294 23.6228V23.5113L85.4697 23.8456L83.3273 24.7371L82.989 24.0685Z" fill="#414D5B"/>
<path d="M88.8516 28.527L88.6261 28.4156L83.8904 25.964L84.2286 25.5183L85.8072 24.2926L86.0327 24.404L86.1455 24.5154L86.4838 24.8497V24.9612L89.641 28.0812L88.9644 28.3041L88.8516 28.527Z" fill="#576779"/>
<path d="M89.0799 28.4157L89.1932 28.5274L88.8531 28.6392V28.5274L89.0799 28.4157Z" fill="#2C343D"/>
<path d="M89.7551 28.1931V28.3046L89.1913 28.5275L89.0786 28.416L89.7551 28.1931Z" fill="#2C343D"/>
<path d="M88.8556 28.5283V28.6408L88.6261 28.5283V28.4157L88.8556 28.5283Z" fill="#2C343D"/>
<path d="M85.2434 26.7447L84.7924 26.5218L84.6796 26.4104L84.3414 26.2989L84.2286 26.1875L83.8904 26.0761L84.0031 25.9646L88.7389 28.4162V28.5276L87.0476 27.7476L86.7093 27.6361L85.2434 26.7447Z" fill="#2C343D"/>
<path d="M19.9581 21.9521L23.5663 18.7206C22.8898 18.7206 22.5515 18.8321 22.326 18.9435L18.3795 21.5064L19.1688 21.8407L19.9581 21.9521Z" fill="#576779"/>
<path d="M19.9568 22.175L23.6778 18.9435L23.565 18.7206L19.9568 21.9521V22.175Z" fill="#2C343D"/>
<path d="M19.7331 22.1742L19.1693 21.84L18.38 21.5056L17.8162 21.2828L17.4779 21.5056L19.3948 22.3971L19.7331 22.1742Z" fill="#414D5B"/>
<path d="M19.7334 22.1745V22.2863L19.9612 22.1745L19.8473 21.9511L19.7334 22.1745Z" fill="#2C343D"/>
<path d="M18.2676 22.4V22.8457L19.5079 22.4L17.591 21.5085L17.3655 22.4L18.042 22.2885L18.2676 22.4Z" fill="#414D5B"/>
<path d="M18.2666 22.7308L18.3793 22.8422L19.6197 22.3965L19.5069 22.285L18.2666 22.7308Z" fill="#2C343D"/>
<path d="M19.1681 21.8396L19.7319 22.1739L19.8446 21.9511L19.1681 21.8396Z" fill="#576779"/>
<path d="M19.3953 22.3974L19.5086 22.5092L19.7353 22.2857V22.1739L19.3953 22.3974Z" fill="#2C343D"/>
<path d="M18.8309 26.7431V26.2973H18.6053C18.4926 26.1859 18.4926 26.1859 18.3798 26.0745C17.7033 25.6287 16.5757 25.6287 16.012 26.0745C15.8992 26.1859 15.8992 26.1859 15.7864 26.2973H15.5609V26.8545C15.5609 27.0774 15.7865 27.3002 16.012 27.5231C16.6885 27.9688 17.816 27.9688 18.3798 27.5231C18.6053 27.3002 18.8309 27.0774 18.8309 26.7431Z" fill="url(#paint36_linear_1_579)"/>
<path d="M18.2663 25.6275C17.5897 25.1818 16.4622 25.1818 15.8984 25.6275C15.2219 26.0732 15.2219 26.6304 15.8984 26.9647C16.5749 27.4104 17.7025 27.4104 18.2663 26.9647C18.8301 26.519 18.9428 26.0732 18.2663 25.6275Z" fill="url(#paint37_linear_1_579)"/>
<path d="M18.3797 26.1857V23.8456H15.7863V26.2972C15.7863 26.4086 15.899 26.7429 16.2373 26.8543C16.6883 27.1886 17.4776 27.1886 18.0414 26.8543C18.2669 26.7429 18.3797 26.4086 18.3797 26.1857Z" fill="url(#paint38_linear_1_579)"/>
<path d="M18.0411 23.2902C17.5901 22.9559 16.8008 22.9559 16.2371 23.2902C15.786 23.6244 15.786 23.9587 16.2371 24.293C16.6881 24.6273 17.4774 24.6273 18.0411 24.293C18.4921 24.0702 18.4921 23.6244 18.0411 23.2902Z" fill="url(#paint39_linear_1_579)"/>
<path d="M17.8157 23.1785C17.3647 22.9556 16.8009 22.9556 16.3499 23.1785C15.8988 23.4013 15.8988 23.8471 16.3499 24.0699C16.8009 24.2928 17.3647 24.2928 17.8157 24.0699C18.2667 23.7357 18.2667 23.4013 17.8157 23.1785Z" fill="url(#paint40_linear_1_579)"/>
<path d="M17.5917 23.4031C17.479 23.2916 17.3662 23.1802 17.1407 23.1802C16.9152 23.1802 16.6896 23.2916 16.6896 23.4031H16.5769V23.5145C16.5769 23.6259 16.8024 23.8488 17.1407 23.8488C17.479 23.8488 17.7045 23.7374 17.7045 23.5145L17.5917 23.4031Z" fill="url(#paint41_linear_1_579)"/>
<path d="M18.2669 22.5079C18.1541 22.6193 18.1541 22.6193 18.1541 22.6193L16.801 23.6222C16.6883 23.7336 16.2373 23.7336 16.0118 23.7336C16.0118 23.7336 16.0118 23.7336 15.899 23.7336C15.899 23.7336 15.7863 23.7336 15.7863 23.6222V24.0679C15.7863 24.1794 15.899 24.1794 15.899 24.2908C15.899 24.2908 15.899 24.2908 16.0118 24.2908C16.2373 24.4022 16.5755 24.4022 16.801 24.1794L18.1541 23.1765C18.2669 23.0651 18.2669 23.065 18.2669 22.9536V22.5079Z" fill="url(#paint42_linear_1_579)"/>
<path d="M15.7863 23.512C15.7863 23.6235 15.7863 23.6235 15.7863 23.512C15.7863 23.6235 15.899 23.6235 15.899 23.6235C15.899 23.6235 15.899 23.6235 16.0118 23.6235C16.2373 23.7349 16.5755 23.7349 16.801 23.512L18.1541 22.5092C18.1541 22.5092 18.2669 22.5091 18.2669 22.3977C18.2669 22.2863 18.1541 22.2863 18.1541 22.1748C18.1541 22.1748 18.1541 22.1748 18.0414 22.1748C17.8159 22.0634 17.4776 22.0634 17.2521 22.2863L15.7863 23.2892C15.899 23.2892 15.7863 23.2892 15.7863 23.512C15.7863 23.4006 15.7863 23.512 15.7863 23.512Z" fill="#FAFAFA"/>
<path d="M17.5917 22.8438C17.479 22.7323 17.3662 22.6209 17.1407 22.6209C16.9152 22.6209 16.6896 22.7323 16.6896 22.8438H16.5769V22.9552C16.5769 23.0666 16.8024 23.2895 17.1407 23.2895C17.479 23.2895 17.7045 23.1781 17.7045 22.9552L17.5917 22.8438Z" fill="url(#paint43_linear_1_579)"/>
<path d="M17.1407 23.2895C17.479 23.2895 17.7045 23.1781 17.7045 22.9552C17.7045 22.7323 17.479 22.6209 17.1407 22.6209C16.8024 22.6209 16.5769 22.7323 16.5769 22.9552C16.5769 23.0666 16.8024 23.2895 17.1407 23.2895Z" fill="#FAFAFA"/>
<path d="M16.8029 24.5142L16.9159 24.0685V23.8456L16.5769 24.5142L16.6899 24.6257L16.8029 24.5142Z" fill="#2C343D"/>
<path d="M16.5747 24.85L16.688 24.7383L16.5747 24.6266L16.2347 24.9618L16.3481 25.0735L16.5747 24.85Z" fill="#2C343D"/>
<path d="M16.3515 25.072L16.1243 25.7406L16.2379 25.852L16.3515 25.072Z" fill="#2C343D"/>
<path d="M14.4324 24.0685L15.6727 25.4057L16.1237 25.74L16.2365 24.9599L14.4324 24.0685Z" fill="#414D5B"/>
<path d="M14.3197 24.0685L14.2069 24.1799L15.7855 25.4056L14.3197 24.0685Z" fill="#414D5B"/>
<path d="M14.4324 24.0704L16.2365 24.9618L16.5748 24.6276L14.6579 23.7361L14.5451 23.8475L14.4324 24.0704Z" fill="#414D5B"/>
<path d="M16.9128 23.8463H16.6873H16.4618L16.3491 23.7349L15.898 23.512L15.7853 23.4006V23.2891L14.6577 23.6234L16.5746 24.5149L16.9128 23.8463Z" fill="#414D5B"/>
<path d="M11.3895 28.1911L11.5023 28.0797L16.1252 25.7396L15.6742 25.4053L14.0956 24.1796L13.9829 24.4024H13.8701L13.5319 24.7368V24.8482L10.4874 27.8568L11.164 28.0797L11.3895 28.1911Z" fill="#576779"/>
<path d="M11.164 28.0799L11.0507 28.1916L11.2773 28.3033L11.3907 28.1916L11.164 28.0799Z" fill="#2C343D"/>
<path d="M10.4874 27.8576V27.969L11.0512 28.1919L11.164 28.0805L10.4874 27.8576Z" fill="#2C343D"/>
<path d="M11.3908 28.1924L11.276 28.305L11.5056 28.1924V28.0799L11.3908 28.1924Z" fill="#2C343D"/>
<path d="M14.8836 26.5202L15.3346 26.2973L15.4474 26.1859L15.7857 26.0745L15.8984 25.963L16.3494 25.8516L16.2367 25.7402L11.6136 28.0802V28.1916L13.1923 27.4116L13.4178 27.3002L14.8836 26.5202Z" fill="#2C343D"/>
<path d="M48.1475 17.7183L49.0495 14.4867H50.5153L51.4173 17.7183H48.1475Z" fill="#36A94C"/>
<path d="M46.5681 19.0555L48.1467 17.7183L49.0488 14.4867L47.2447 15.9354L46.5681 19.0555Z" fill="#8ADB95"/>
<path d="M51.4172 17.7182L53.1085 19.1669L52.3193 15.8239L50.5151 14.4867L51.4172 17.7182Z" fill="#2C973C"/>
<path d="M68.2182 48.3611L68.1055 49.0297L66.9779 49.6983C66.8651 49.2526 66.5269 49.0297 66.1886 48.6954C65.7376 48.4725 65.512 48.5839 65.1738 48.8068L53.5599 55.3813V57.3871L52.4323 58.0557C52.3196 57.6099 51.9813 57.2756 51.5303 57.0528C50.8537 56.7185 50.4027 56.9413 50.4027 57.7213C50.4027 58.3899 50.8537 59.2814 51.5303 59.6157C51.643 59.7271 51.8685 59.7271 51.9813 59.7271L52.0941 59.8386L52.4323 59.7271L53.6726 59.0585L68.3309 50.7012C68.6692 50.5897 68.782 50.3668 68.782 49.9211C68.6692 49.2525 68.5565 48.8068 68.2182 48.3611Z" fill="url(#paint44_linear_1_579)"/>
<path d="M51.4175 57.164C50.7409 56.8297 50.2899 57.0525 50.2899 57.8325C50.2899 58.5011 50.7409 59.3926 51.4175 59.7268C52.094 60.0611 52.545 59.8383 52.545 59.0583C52.4323 58.3897 51.9813 57.4982 51.4175 57.164Z" fill="url(#paint45_linear_1_579)"/>
<path d="M51.0792 57.7212C50.6282 57.4983 50.2899 57.6098 50.2899 58.1669C50.2899 58.6127 50.6282 59.2812 51.0792 59.5041C51.5302 59.727 51.8685 59.6156 51.8685 59.0584C51.8685 58.5012 51.5302 57.944 51.0792 57.7212Z" fill="#47546A"/>
<path d="M50.1752 44.0161C48.9349 44.0161 47.8074 44.6847 47.8074 45.3533C47.8074 46.1333 48.8222 46.6904 50.1752 46.6904C51.5283 46.6904 52.5431 46.0219 52.5431 45.3533C52.5431 44.6847 51.4155 44.0161 50.1752 44.0161Z" fill="#F9F9F9"/>
<path d="M49.3874 39.3372L48.4854 35.9943H51.7553L50.966 39.2258L49.3874 39.3372Z" fill="#36A94C"/>
<path d="M49.3868 39.3373L47.6954 40.6745L46.9061 37.3315L48.4847 35.9943L49.3868 39.3373Z" fill="#8ADB95"/>
<path d="M47.6955 40.7829V42.5658L47.5827 42.6773L46.7935 39.6686L46.9062 37.5514L47.6955 40.7829Z" fill="#8ADB95"/>
<path d="M53.4458 37.4416V39.2245L52.9937 39.3359L53.4458 37.4416Z" fill="#2C973C"/>
<path d="M50.9658 39.3353L51.7551 36.1038L53.4465 37.441L52.8827 39.7811L51.8679 40.2268L50.9658 39.3353Z" fill="#2C973C"/>
<path d="M53.1077 40.6731L56.716 37.4416C56.0394 37.4416 55.5884 37.553 55.4757 37.6644L51.5292 40.2274L52.3185 40.5616L53.1077 40.6731Z" fill="#576779"/>
<path d="M53.1064 40.896L56.7146 37.6644V37.4416H56.6019L52.9937 40.6731L53.1064 40.896Z" fill="#2C343D"/>
<path d="M52.8829 40.8955L52.3191 40.5612L51.5298 40.1155L50.9661 40.0041L50.6278 40.2269L52.5446 41.0069L52.8829 40.8955Z" fill="#414D5B"/>
<path d="M52.8831 40.8971V41.1205L53.1109 41.0088L52.997 40.7853L52.8831 40.8971Z" fill="#2C343D"/>
<path d="M51.4175 41.1184V41.4527L52.6578 41.0069L50.6282 40.2269L50.4027 41.1184L51.0792 40.8955L51.4175 41.1184Z" fill="#414D5B"/>
<path d="M51.4164 41.4536L51.5292 41.565L52.6568 41.2307V41.1193L51.4164 41.4536Z" fill="#2C343D"/>
<path d="M52.3179 40.5609L52.8817 40.8952L52.9944 40.6723L52.3179 40.5609Z" fill="#576779"/>
<path d="M52.545 41.1199V41.3434L52.8851 41.1199V41.0082L52.545 41.1199Z" fill="#2C343D"/>
<path d="M51.9805 45.5755V45.1297H51.755C51.6423 45.0183 51.6422 45.0183 51.5295 44.9069C50.8529 44.4611 49.7253 44.4611 49.1616 44.9069C49.0488 45.0183 49.0489 45.0183 48.9361 45.1297H48.7106V45.5755C48.7106 45.7983 48.936 46.0212 49.1616 46.2441C49.8381 46.6898 50.9657 46.6898 51.5295 46.2441C51.755 46.0212 51.9805 45.7983 51.9805 45.5755Z" fill="url(#paint46_linear_1_579)"/>
<path d="M51.4159 44.3504C50.7394 43.9046 49.6118 43.9046 49.0481 44.3504C48.3715 44.7961 48.3715 45.3533 49.0481 45.6876C49.7246 46.1333 50.8521 46.1333 51.4159 45.6876C52.0925 45.3533 52.0925 44.7961 51.4159 44.3504Z" fill="url(#paint47_linear_1_579)"/>
<path d="M51.4148 45.02V42.6799H48.8214V45.02C48.8214 45.1314 48.9342 45.4657 49.2725 45.5771C49.7235 45.9114 50.5127 45.9114 51.0765 45.5771C51.4148 45.3543 51.5275 45.2428 51.4148 45.02Z" fill="url(#paint48_linear_1_579)"/>
<path d="M51.0784 42.1197C50.6274 41.7854 49.8381 41.7854 49.2743 42.1197C48.8233 42.454 48.8233 42.7883 49.2743 43.1226C49.7253 43.4569 50.5146 43.4569 51.0784 43.1226C51.6422 42.7883 51.6422 42.3426 51.0784 42.1197Z" fill="url(#paint49_linear_1_579)"/>
<path d="M50.9656 41.8982C50.5146 41.6753 49.9508 41.6753 49.4998 41.8982C49.0487 42.121 49.0487 42.5668 49.4998 42.7896C49.9508 43.0125 50.5146 43.0125 50.9656 42.7896C51.4166 42.4553 51.4166 42.121 50.9656 41.8982Z" fill="url(#paint50_linear_1_579)"/>
<path d="M50.7414 42.2332C50.6287 42.1218 50.5159 42.0104 50.2904 42.0104C50.0648 42.0104 49.8394 42.1218 49.8394 42.2332H49.7266V42.3446C49.7266 42.4561 49.9521 42.679 50.2904 42.679C50.6286 42.679 50.8542 42.5675 50.8542 42.3446L50.7414 42.2332Z" fill="url(#paint51_linear_1_579)"/>
<path d="M51.4166 41.2307C51.4166 41.2307 51.4166 41.3421 51.4166 41.2307C51.4166 41.3421 51.4166 41.3421 51.4166 41.2307C51.4166 41.3421 51.4166 41.3421 51.4166 41.2307C51.3039 41.3421 51.3039 41.3422 51.3039 41.3422L49.9508 42.345C49.838 42.4565 49.387 42.4565 49.1615 42.4565C49.1615 42.4565 49.1615 42.4565 49.0488 42.4565C49.0488 42.4565 48.936 42.4565 48.936 42.345V42.7908C48.936 42.9022 49.0488 42.9022 49.0488 43.0136C49.0488 43.0136 49.0487 43.0136 49.1615 43.0136C49.387 43.1251 49.7253 43.1251 49.9508 42.9022L51.3039 41.8993C51.4167 41.7879 51.4166 41.7879 51.4166 41.6764V41.2307Z" fill="url(#paint52_linear_1_579)"/>
<path d="M48.936 42.2333C48.936 42.3447 49.0488 42.3447 49.0488 42.3447C49.0488 42.3447 49.0487 42.3447 49.1615 42.3447C49.387 42.4561 49.7253 42.4561 49.9508 42.2333L51.3039 41.2304C51.3039 41.2304 51.4166 41.2304 51.4166 41.1189C51.4166 41.0075 51.3039 41.0075 51.3039 40.8961C51.3039 40.8961 51.3039 40.8961 51.1912 40.8961C50.9657 40.7846 50.6274 40.7846 50.4019 41.0075L49.0488 42.0104C48.936 42.0104 48.936 42.1218 48.936 42.2333Z" fill="#FAFAFA"/>
<path d="M50.7414 41.6745C50.6287 41.5631 50.5159 41.4517 50.2904 41.4517C50.0648 41.4517 49.8394 41.5631 49.8394 41.6745H49.7266V41.7859C49.7266 41.8974 49.9521 42.1203 50.2904 42.1203C50.6286 42.1203 50.8542 42.0088 50.8542 41.7859L50.7414 41.6745Z" fill="url(#paint53_linear_1_579)"/>
<path d="M50.7396 41.6764C50.7396 41.7878 50.5141 42.0107 50.1758 42.0107C49.8376 42.0107 49.6121 41.8993 49.6121 41.6764C49.6121 41.4536 49.8376 41.3421 50.1758 41.3421C50.5141 41.3421 50.7396 41.4536 50.7396 41.6764Z" fill="#FAFAFA"/>
<path d="M49.9526 43.3485L50.0657 42.9028V42.6799L49.7266 43.3485V43.4599L49.9526 43.3485Z" fill="#2C343D"/>
<path d="M49.7265 43.5691L49.8399 43.4574V43.3456L49.3865 43.6808L49.4999 43.7926L49.7265 43.5691Z" fill="#2C343D"/>
<path d="M49.5006 43.6821L49.3876 43.5707L49.1615 44.4621L49.2746 44.5735L49.5006 43.6821Z" fill="#2C343D"/>
<path d="M47.5842 42.7897L48.8245 44.0155L49.1628 44.4612L49.2756 43.5698L47.5842 42.7897Z" fill="#414D5B"/>
<path d="M47.4715 42.7897L47.3588 42.9012L48.9373 44.1269L47.4715 42.7897Z" fill="#414D5B"/>
<path d="M47.5842 42.7897L49.3883 43.5698L49.8393 43.2355L47.9225 42.4555H47.8098L47.5842 42.7897Z" fill="#414D5B"/>
<path d="M49.9497 42.6783L49.7242 42.5669H49.6114H49.3859L49.0476 42.344L48.9349 42.2326L47.8074 42.5669L49.7242 43.3469L49.9497 42.6783Z" fill="#414D5B"/>
<path d="M44.4264 46.9124H44.6518L49.1621 44.5723L48.8238 44.1266L47.2453 42.9008L47.0198 43.0123L46.907 43.1237L46.5687 43.458L46.456 43.5694L43.6371 46.6895L44.2009 46.9124H44.4264Z" fill="#576779"/>
<path d="M44.2023 46.9119V47.0245L44.4318 47.137V46.9119H44.2023Z" fill="#2C343D"/>
<path d="M43.637 46.689L43.5242 46.8005L44.2007 47.0233V46.9119L43.637 46.689Z" fill="#2C343D"/>
<path d="M44.4257 46.9119V47.137L44.6551 47.0245V46.9119H44.4257Z" fill="#2C343D"/>
<path d="M47.9209 45.3545L48.3719 45.1316L48.4847 45.0202L48.8229 44.7974H48.9357L49.274 44.6859L49.1612 44.463L44.6509 46.9146V47.026L46.2295 46.246L46.455 46.1345L47.9209 45.3545Z" fill="#2C343D"/>
<g style="mix-blend-mode:lighten">
<rect y="4.57764e-05" width="98.267" height="115.779" fill="#032EDD"/>
</g>
<defs>
<linearGradient id="paint0_linear_1_579" x1="32.4919" y1="77.8479" x2="-3.72017" y2="92.9656" gradientUnits="userSpaceOnUse">
<stop offset="0.15" stop-color="#EDEDED"/>
<stop offset="1" stop-color="#DFDFDF"/>
</linearGradient>
<linearGradient id="paint1_linear_1_579" x1="93.116" y1="84.7928" x2="23.5011" y2="69.7069" gradientUnits="userSpaceOnUse">
<stop offset="0.15" stop-color="#E6E6E6"/>
<stop offset="1" stop-color="#BBBBBB"/>
</linearGradient>
<linearGradient id="paint2_linear_1_579" x1="81.7844" y1="62.9939" x2="-20.0082" y2="9.80968" gradientUnits="userSpaceOnUse">
<stop offset="0.1927" stop-color="#E9E8E8"/>
<stop offset="1" stop-color="white"/>
</linearGradient>
<linearGradient id="paint3_linear_1_579" x1="40.836" y1="43.9559" x2="39.3107" y2="41.2815" gradientUnits="userSpaceOnUse">
<stop stop-color="#313646"/>
<stop offset="1" stop-color="#4A566F"/>
</linearGradient>
<linearGradient id="paint4_linear_1_579" x1="30.737" y1="47.3769" x2="32.9402" y2="47.3769" gradientUnits="userSpaceOnUse">
<stop stop-color="#313646"/>
<stop offset="1" stop-color="#4A566F"/>
</linearGradient>
<linearGradient id="paint5_linear_1_579" x1="30.7358" y1="47.4964" x2="32.3685" y2="47.4964" gradientUnits="userSpaceOnUse">
<stop stop-color="#313646"/>
<stop offset="1" stop-color="#4A566F"/>
</linearGradient>
<linearGradient id="paint6_linear_1_579" x1="79.6707" y1="30.7252" x2="86.8623" y2="30.7252" gradientUnits="userSpaceOnUse">
<stop stop-color="#A9CFB1"/>
<stop offset="1" stop-color="white"/>
</linearGradient>
<linearGradient id="paint7_linear_1_579" x1="31.8277" y1="39.751" x2="34.9973" y2="39.751" gradientUnits="userSpaceOnUse">
<stop stop-color="#A9CFB1"/>
<stop offset="1" stop-color="white"/>
</linearGradient>
<linearGradient id="paint8_linear_1_579" x1="45.9182" y1="46.7789" x2="54.1777" y2="46.7789" gradientUnits="userSpaceOnUse">
<stop stop-color="#A9CFB1"/>
<stop offset="1" stop-color="white"/>
</linearGradient>
<linearGradient id="paint9_linear_1_579" x1="52.2183" y1="11.7196" x2="53.8589" y2="11.7196" gradientUnits="userSpaceOnUse">
<stop stop-color="#B2C9B8"/>
<stop offset="1" stop-color="#D5E1D8"/>
</linearGradient>
<linearGradient id="paint10_linear_1_579" x1="39.2618" y1="38.7119" x2="45.9167" y2="38.7119" gradientUnits="userSpaceOnUse">
<stop stop-color="#A9CFB1"/>
<stop offset="1" stop-color="white"/>
</linearGradient>
<linearGradient id="paint11_linear_1_579" x1="40.6339" y1="41.9864" x2="46.6551" y2="41.9864" gradientUnits="userSpaceOnUse">
<stop stop-color="#A9CFB1"/>
<stop offset="1" stop-color="white"/>
</linearGradient>
<linearGradient id="paint12_linear_1_579" x1="71.9238" y1="30.9268" x2="79.6803" y2="30.9268" gradientUnits="userSpaceOnUse">
<stop stop-color="#A9CFB1"/>
<stop offset="1" stop-color="white"/>
</linearGradient>
<linearGradient id="paint13_linear_1_579" x1="13.0777" y1="30.4467" x2="20.3673" y2="30.4467" gradientUnits="userSpaceOnUse">
<stop stop-color="#A9CFB1"/>
<stop offset="1" stop-color="white"/>
</linearGradient>
<linearGradient id="paint14_linear_1_579" x1="59.1468" y1="33.49" x2="61.3748" y2="41.8273" gradientUnits="userSpaceOnUse">
<stop offset="0.15" stop-color="#D5E1D8"/>
<stop offset="1" stop-color="#CCFCD5"/>
</linearGradient>
<linearGradient id="paint15_linear_1_579" x1="44.1554" y1="14.4755" x2="49.0029" y2="14.4755" gradientUnits="userSpaceOnUse">
<stop stop-color="#A9CFB1"/>
<stop offset="1" stop-color="white"/>
</linearGradient>
<linearGradient id="paint16_linear_1_579" x1="40.2787" y1="34.5138" x2="44.1132" y2="45.5294" gradientUnits="userSpaceOnUse">
<stop offset="0.15" stop-color="#D5E1D8"/>
<stop offset="1" stop-color="#CCFCD5"/>
</linearGradient>
<linearGradient id="paint17_linear_1_579" x1="13.0772" y1="28.4901" x2="49.4186" y2="28.4901" gradientUnits="userSpaceOnUse">
<stop stop-color="#A9CFB1"/>
<stop offset="1" stop-color="white"/>
</linearGradient>
<linearGradient id="paint18_linear_1_579" x1="42.9781" y1="34.4879" x2="32.2571" y2="41.7937" gradientUnits="userSpaceOnUse">
<stop offset="0.15" stop-color="#E3F1E6"/>
<stop offset="1" stop-color="#CCFCD5"/>
</linearGradient>
<linearGradient id="paint19_linear_1_579" x1="59.2556" y1="32.599" x2="50.2258" y2="40.0692" gradientUnits="userSpaceOnUse">
<stop offset="0.15" stop-color="#E3F1E6"/>
<stop offset="1" stop-color="#CCFCD5"/>
</linearGradient>
<linearGradient id="paint20_linear_1_579" x1="50.9342" y1="28.411" x2="86.8662" y2="28.411" gradientUnits="userSpaceOnUse">
<stop stop-color="#A9CFB1"/>
<stop offset="1" stop-color="white"/>
</linearGradient>
<linearGradient id="paint21_linear_1_579" x1="33.8358" y1="25.0161" x2="66.0773" y2="25.0161" gradientUnits="userSpaceOnUse">
<stop stop-color="#A9CFB1"/>
<stop offset="1" stop-color="white"/>
</linearGradient>
<linearGradient id="paint22_linear_1_579" x1="71.935" y1="27.0528" x2="82.7922" y2="27.0528" gradientUnits="userSpaceOnUse">
<stop stop-color="#A9CFB1"/>
<stop offset="1" stop-color="white"/>
</linearGradient>
<linearGradient id="paint23_linear_1_579" x1="47.9055" y1="8.486" x2="51.464" y2="8.486" gradientUnits="userSpaceOnUse">
<stop stop-color="#A9CFB1"/>
<stop offset="1" stop-color="white"/>
</linearGradient>
<linearGradient id="paint24_linear_1_579" x1="48.3536" y1="7.1691" x2="51.0147" y2="7.1691" gradientUnits="userSpaceOnUse">
<stop stop-color="#A9CFB1"/>
<stop offset="1" stop-color="white"/>
</linearGradient>
<linearGradient id="paint25_linear_1_579" x1="48.3523" y1="5.45366" x2="51.0202" y2="5.45366" gradientUnits="userSpaceOnUse">
<stop stop-color="#A9CFB1"/>
<stop offset="1" stop-color="white"/>
</linearGradient>
<linearGradient id="paint26_linear_1_579" x1="48.5767" y1="5.17213" x2="50.7552" y2="5.17213" gradientUnits="userSpaceOnUse">
<stop stop-color="#A9CFB1"/>
<stop offset="1" stop-color="white"/>
</linearGradient>
<linearGradient id="paint27_linear_1_579" x1="48.4278" y1="4.95917" x2="51.0223" y2="4.95917" gradientUnits="userSpaceOnUse">
<stop stop-color="#A9CFB1"/>
<stop offset="1" stop-color="white"/>
</linearGradient>
<linearGradient id="paint28_linear_1_579" x1="81.0921" y1="27.0945" x2="84.6506" y2="27.0945" gradientUnits="userSpaceOnUse">
<stop stop-color="#A9CFB1"/>
<stop offset="1" stop-color="white"/>
</linearGradient>
<linearGradient id="paint29_linear_1_579" x1="81.0909" y1="26.6137" x2="84.6495" y2="26.6137" gradientUnits="userSpaceOnUse">
<stop stop-color="#A9CFB1"/>
<stop offset="1" stop-color="white"/>
</linearGradient>
<linearGradient id="paint30_linear_1_579" x1="81.5336" y1="25.7742" x2="84.1969" y2="25.7742" gradientUnits="userSpaceOnUse">
<stop stop-color="#A9CFB1"/>
<stop offset="1" stop-color="white"/>
</linearGradient>
<linearGradient id="paint31_linear_1_579" x1="81.5335" y1="24.0587" x2="84.2013" y2="24.0587" gradientUnits="userSpaceOnUse">
<stop stop-color="#A9CFB1"/>
<stop offset="1" stop-color="white"/>
</linearGradient>
<linearGradient id="paint32_linear_1_579" x1="81.7557" y1="23.7" x2="83.9352" y2="23.7" gradientUnits="userSpaceOnUse">
<stop stop-color="#A9CFB1"/>
<stop offset="1" stop-color="white"/>
</linearGradient>
<linearGradient id="paint33_linear_1_579" x1="82.3201" y1="23.7379" x2="83.4634" y2="23.7379" gradientUnits="userSpaceOnUse">
<stop stop-color="#A9CFB1"/>
<stop offset="1" stop-color="white"/>
</linearGradient>
<linearGradient id="paint34_linear_1_579" x1="81.6125" y1="23.5658" x2="84.2047" y2="23.5658" gradientUnits="userSpaceOnUse">
<stop stop-color="#A9CFB1"/>
<stop offset="1" stop-color="white"/>
</linearGradient>
<linearGradient id="paint35_linear_1_579" x1="82.3201" y1="23.1803" x2="83.4634" y2="23.1803" gradientUnits="userSpaceOnUse">
<stop stop-color="#A9CFB1"/>
<stop offset="1" stop-color="white"/>
</linearGradient>
<linearGradient id="paint36_linear_1_579" x1="15.3873" y1="26.7732" x2="18.8139" y2="26.7732" gradientUnits="userSpaceOnUse">
<stop stop-color="#A9CFB1"/>
<stop offset="1" stop-color="white"/>
</linearGradient>
<linearGradient id="paint37_linear_1_579" x1="15.3854" y1="26.3329" x2="18.8143" y2="26.3329" gradientUnits="userSpaceOnUse">
<stop stop-color="#A9CFB1"/>
<stop offset="1" stop-color="white"/>
</linearGradient>
<linearGradient id="paint38_linear_1_579" x1="15.8144" y1="25.4948" x2="18.3785" y2="25.4948" gradientUnits="userSpaceOnUse">
<stop stop-color="#A9CFB1"/>
<stop offset="1" stop-color="white"/>
</linearGradient>
<linearGradient id="paint39_linear_1_579" x1="15.8176" y1="23.8585" x2="18.3873" y2="23.8585" gradientUnits="userSpaceOnUse">
<stop stop-color="#A9CFB1"/>
<stop offset="1" stop-color="white"/>
</linearGradient>
<linearGradient id="paint40_linear_1_579" x1="16.0353" y1="23.6198" x2="18.1337" y2="23.6198" gradientUnits="userSpaceOnUse">
<stop stop-color="#A9CFB1"/>
<stop offset="1" stop-color="white"/>
</linearGradient>
<linearGradient id="paint41_linear_1_579" x1="16.5341" y1="23.5412" x2="17.6346" y2="23.5412" gradientUnits="userSpaceOnUse">
<stop stop-color="#A9CFB1"/>
<stop offset="1" stop-color="white"/>
</linearGradient>
<linearGradient id="paint42_linear_1_579" x1="15.8144" y1="23.3648" x2="18.3131" y2="23.3648" gradientUnits="userSpaceOnUse">
<stop stop-color="#A9CFB1"/>
<stop offset="1" stop-color="white"/>
</linearGradient>
<linearGradient id="paint43_linear_1_579" x1="16.5341" y1="22.9797" x2="17.6346" y2="22.9797" gradientUnits="userSpaceOnUse">
<stop stop-color="#A9CFB1"/>
<stop offset="1" stop-color="white"/>
</linearGradient>
<linearGradient id="paint44_linear_1_579" x1="60.3331" y1="55.0693" x2="58.8078" y2="52.396" gradientUnits="userSpaceOnUse">
<stop stop-color="#313646"/>
<stop offset="1" stop-color="#4A566F"/>
</linearGradient>
<linearGradient id="paint45_linear_1_579" x1="50.229" y1="58.4766" x2="52.4323" y2="58.4766" gradientUnits="userSpaceOnUse">
<stop stop-color="#313646"/>
<stop offset="1" stop-color="#4A566F"/>
</linearGradient>
<linearGradient id="paint46_linear_1_579" x1="48.4952" y1="45.5398" x2="51.9218" y2="45.5398" gradientUnits="userSpaceOnUse">
<stop stop-color="#A9CFB1"/>
<stop offset="1" stop-color="white"/>
</linearGradient>
<linearGradient id="paint47_linear_1_579" x1="48.4933" y1="45.0212" x2="51.9211" y2="45.0212" gradientUnits="userSpaceOnUse">
<stop stop-color="#A9CFB1"/>
<stop offset="1" stop-color="white"/>
</linearGradient>
<linearGradient id="paint48_linear_1_579" x1="48.9251" y1="44.2633" x2="51.4881" y2="44.2633" gradientUnits="userSpaceOnUse">
<stop stop-color="#A9CFB1"/>
<stop offset="1" stop-color="white"/>
</linearGradient>
<linearGradient id="paint49_linear_1_579" x1="48.9259" y1="42.6234" x2="51.4956" y2="42.6234" gradientUnits="userSpaceOnUse">
<stop stop-color="#A9CFB1"/>
<stop offset="1" stop-color="white"/>
</linearGradient>
<linearGradient id="paint50_linear_1_579" x1="49.1401" y1="42.3049" x2="51.2396" y2="42.3049" gradientUnits="userSpaceOnUse">
<stop stop-color="#A9CFB1"/>
<stop offset="1" stop-color="white"/>
</linearGradient>
<linearGradient id="paint51_linear_1_579" x1="49.6397" y1="42.3068" x2="50.738" y2="42.3068" gradientUnits="userSpaceOnUse">
<stop stop-color="#A9CFB1"/>
<stop offset="1" stop-color="white"/>
</linearGradient>
<linearGradient id="paint52_linear_1_579" x1="48.9225" y1="42.1333" x2="51.42" y2="42.1333" gradientUnits="userSpaceOnUse">
<stop stop-color="#A9CFB1"/>
<stop offset="1" stop-color="white"/>
</linearGradient>
<linearGradient id="paint53_linear_1_579" x1="49.6397" y1="41.7459" x2="50.738" y2="41.7459" gradientUnits="userSpaceOnUse">
<stop stop-color="#A9CFB1"/>
<stop offset="1" stop-color="white"/>
</linearGradient>
</defs>
</svg>
