<svg width="44" height="42" viewBox="0 0 44 42" fill="none" xmlns="http://www.w3.org/2000/svg">
<path d="M0 27.1692V10.4031L25.3143 24.7493V41.5154L0 27.1692Z" fill="url(#paint0_linear_1_402)"/>
<path d="M43.9999 31.1472V14.3813L25.3142 24.7521V41.518L43.9999 31.1472Z" fill="url(#paint1_linear_1_402)"/>
<path d="M0 10.4044L18.6857 0.0336456L44 14.3799L25.3143 24.7507L0 10.4044Z" fill="url(#paint2_linear_1_402)"/>
<path d="M33.8291 9.19448V7.92694C33.8291 7.92694 33.2577 6.14086 31.372 5.27663C29.4291 4.4124 28.3434 3.02963 23.6005 3.14486C18.8005 3.26009 15.2005 6.31371 15.2005 6.31371L16.0576 5.79517V7.46602C15.1433 8.04217 14.5719 8.44548 14.5148 8.50309L14.9148 8.67594C14.9148 8.67594 16.0005 7.81171 17.6576 7.0051C19.2005 6.25609 21.2576 5.44948 23.8291 5.33425C25.8291 5.21902 27.7148 5.62232 29.4291 6.54417L31.6005 7.75409C32.572 8.33025 33.2577 8.96402 33.5434 9.6554C33.5434 9.59779 33.6005 9.54017 33.6005 9.48255C33.7148 9.59779 33.772 9.71302 33.772 9.71302L33.8291 9.19448Z" fill="url(#paint3_linear_1_402)"/>
<path d="M34.2851 10.636C34.2851 10.5784 34.2851 10.5784 34.2851 10.5208V8.56183L33.2565 10.7512L29.7708 13.4015L29.6565 13.5744V15.2452C28.6851 15.7638 27.9423 16.1095 27.9423 16.1095L28.228 16.3399C28.2851 16.3399 29.7137 15.7061 31.2565 14.7267C32.6851 13.7472 34.0565 12.5373 34.2851 10.9817C34.228 10.8664 34.2851 10.8088 34.2851 10.636Z" fill="#B4CBB9"/>
<path d="M14.9134 8.21558L15.8848 7.46658V5.39243L14.9134 5.79573L14.2848 6.25665V8.56127L14.9134 8.21558Z" fill="#E8E7EC"/>
<path d="M34.2299 8.90632C34.0013 10.4619 32.6299 11.6719 31.2013 12.5937C30.6299 12.9394 30.0584 13.2851 29.6013 13.5156L29.2584 13.285C29.7156 13.0546 30.287 12.7089 30.8584 12.3632C32.2299 11.499 33.5441 10.2891 33.7727 8.8487C33.9441 7.69639 33.2013 6.6017 31.6013 5.62224L29.4299 4.41226C27.7156 3.49041 25.8299 3.08716 23.8299 3.20239C21.2584 3.31762 19.2013 4.12424 17.6584 4.87324C17.0299 5.16132 16.5156 5.50701 16.0584 5.79509L15.7156 5.56457C16.1727 5.27649 16.687 4.98847 17.3727 4.64278C18.9727 3.83616 21.087 3.02955 23.8299 2.91432C26.0013 2.79908 28.0013 3.26001 29.7727 4.23947L32.0013 5.44939C33.6584 6.48647 34.4584 7.6964 34.2299 8.90632Z" fill="white"/>
<path d="M15.8848 5.45049L16.2848 5.73856L15.5991 6.37233L14.9705 6.83326L14.2848 6.2571L14.9134 5.79618L15.8848 5.45049Z" fill="#F6F6F8"/>
<path d="M15.6018 8.79036L16.2875 7.81089V5.73674L15.6018 6.37051L14.9733 6.83143V9.07844L15.6018 8.79036Z" fill="#CFCFDA"/>
<path d="M28.2849 15.9334L29.2564 15.1844V13.1103L28.2849 13.5136L27.6564 13.9745V16.2791L28.2849 15.9334Z" fill="#A0A6C0"/>
<path d="M29.2567 13.1103L29.771 13.5136L29.0282 14.0321L28.3996 14.4931L27.7139 13.9745L28.3424 13.5136L29.2567 13.1103Z" fill="white"/>
<path d="M29.0274 16.4547L29.7702 15.5328V13.4587L29.0274 13.9772L28.3988 14.4381V16.7428L29.0274 16.4547Z" fill="#D7E3DA"/>
<path d="M25.4279 17.1458C26.6851 15.0717 26.6851 12.767 25.4279 12.0757C24.2279 11.3843 22.2278 12.479 20.9707 14.6107C19.7135 16.6849 19.7135 18.9895 20.9707 19.6809C22.2278 20.3723 24.2279 19.22 25.4279 17.1458Z" fill="#3D424C"/>
<path d="M25.9996 12.3659L25.4282 12.0778L20.9139 19.6254L22.2853 20.3744L26.5139 12.654L25.9996 12.3659Z" fill="#3D424C"/>
<path d="M26.4002 17.6643C27.6574 15.5902 27.6574 13.2856 26.4002 12.5942C25.2002 11.9028 23.2002 12.9975 21.9431 15.1293C20.686 17.2034 20.686 19.508 21.9431 20.1994C23.2002 20.8908 25.2002 19.7961 26.4002 17.6643Z" fill="#464B54"/>
<path d="M26.6286 17.7805C27.8857 15.7063 27.8857 13.4017 26.6286 12.7103C25.4286 12.0189 23.4286 13.1136 22.1714 15.2454C20.9142 17.3195 20.9142 19.6241 22.1714 20.3155C23.3714 21.0069 25.3714 19.8546 26.6286 17.7805Z" fill="#41464F"/>
<path d="M27.5438 13.3433L26.8009 12.94C26.2295 12.5367 25.3724 12.5367 24.4581 13.0553C22.7438 14.0347 21.3723 16.3393 21.3723 18.2983C21.3723 19.3353 21.7723 20.0843 22.4581 20.3148L23.2009 20.7181L23.3724 20.3724C23.7152 20.3148 24.0581 20.1996 24.4581 19.9691C26.1724 18.9897 27.5438 16.6274 27.5438 14.6685C27.5438 14.2076 27.4867 13.8619 27.3152 13.5738L27.5438 13.3433Z" fill="url(#paint4_linear_1_402)"/>
<path d="M28.9143 15.1291L28.1143 13.8615C28.1143 13.8039 28.0572 13.7463 28 13.6887V13.6311C27.4286 12.9397 26.5143 12.8821 25.4286 13.4582C23.7143 14.4377 22.3429 16.8575 22.3429 18.7588C22.3429 19.8535 22.8 20.5449 23.4858 20.833C23.6 20.8906 23.7143 20.8906 23.8286 20.8906L24.8 21.1211L25.1429 20.6602C25.2572 20.6025 25.3715 20.5449 25.4286 20.4873C26.9143 19.6231 28.2286 17.6642 28.4572 15.8781L28.9143 15.1291Z" fill="url(#paint5_linear_1_402)"/>
<path d="M28.2272 18.817C29.3129 16.9733 29.3129 14.8991 28.2272 14.2654C27.1415 13.6316 25.3701 14.6111 24.2844 16.5124C23.1987 18.3561 23.1987 20.4302 24.2844 21.064C25.3701 21.6978 27.1415 20.6607 28.2272 18.817Z" fill="#D7E3DA"/>
<path d="M27.8856 18.5856C28.7999 17.03 28.7999 15.3592 27.8856 14.8406C26.9713 14.3221 25.4856 15.1287 24.6285 16.6843C23.7142 18.2399 23.7142 19.9108 24.6285 20.4293C25.5427 21.0055 26.9713 20.1412 27.8856 18.5856Z" fill="#36AB4B"/>
<path d="M27.0836 15.0137L26.2836 17.664L24.4551 19.8534C24.6836 20.1415 24.9694 20.3143 25.3694 20.3143L26.2836 17.7216L28.1122 15.4747C27.8836 15.129 27.5408 14.9561 27.0836 15.0137Z" fill="#D7E3DA"/>
<path d="M14.5708 6.60424L14.8565 6.14332L13.6566 5.97047C13.2566 5.91286 12.7423 6.02809 12.228 6.31617C10.6851 7.23801 9.42798 9.36978 9.42798 11.0982C9.42798 11.732 9.59941 12.1929 9.88512 12.5386L10.628 13.3452L10.8565 12.9419C11.2565 12.9419 11.7137 12.8267 12.1708 12.5386C13.7137 11.6744 14.9708 9.54263 14.9708 7.75655C14.9708 7.41086 14.7994 6.94993 14.5708 6.60424Z" fill="url(#paint6_linear_1_402)"/>
<path d="M16.3999 6.83238L15.257 6.31384C14.6856 6.08338 13.9999 6.08338 13.1427 6.5443C11.4284 7.52376 10.057 9.88599 10.057 11.8449C10.057 12.7668 10.3999 13.4581 10.9141 13.8038L11.8284 14.4376L12.1142 13.9767C12.457 13.9191 12.7999 13.8038 13.1999 13.5734C14.9141 12.5939 16.2856 10.2317 16.2856 8.27276C16.2856 7.92707 16.2284 7.58138 16.1713 7.2933L16.3999 6.83238Z" fill="#DAEBDE"/>
<path d="M16.1699 11.7881C17.3699 9.71397 17.3699 7.52458 16.1699 6.8332C14.9699 6.14181 13.027 7.23651 11.827 9.31066C10.627 11.3848 10.627 13.5742 11.827 14.2656C13.027 14.957 14.9699 13.8623 16.1699 11.7881Z" fill="#CFCFDA"/>
<path d="M16.3432 11.9014C17.6004 9.8272 17.6004 7.52258 16.3432 6.83119C15.1432 6.13981 13.1432 7.2345 11.8861 9.36627C10.629 11.4404 10.629 13.745 11.8861 14.4364C13.0861 15.1278 15.0861 13.9755 16.3432 11.9014Z" fill="#3D424C"/>
<path d="M17.3147 7.40951L16.4004 6.83336L11.7719 14.381L12.6861 14.8995L17.3147 7.40951Z" fill="#3D424C"/>
<path d="M17.0855 12.3636C18.3427 10.2894 18.3427 7.98481 17.0855 7.29343C15.8855 6.60204 13.8855 7.69674 12.6284 9.82851C11.3713 11.9027 11.3713 14.2073 12.6284 14.8987C13.8855 15.59 15.8855 14.4377 17.0855 12.3636Z" fill="#41464F"/>
<path d="M16.5706 12.0751C17.4849 10.5771 17.4849 8.90627 16.5706 8.38773C15.6564 7.86919 14.2849 8.67581 13.3707 10.1738C12.4564 11.6718 12.4564 13.3427 13.3707 13.8612C14.2278 14.3797 15.6564 13.5731 16.5706 12.0751Z" fill="#3D424C"/>
<path d="M16.2842 11.9032C17.0842 10.578 17.0842 9.13763 16.2842 8.67671C15.4842 8.21578 14.227 8.96478 13.427 10.2899C12.627 11.6151 12.627 13.0555 13.427 13.5164C14.227 13.9197 15.4842 13.2283 16.2842 11.9032Z" fill="#393842"/>
<path d="M15.9423 11.6718C16.628 10.5195 16.628 9.25194 15.9423 8.84863C15.2565 8.44533 14.1708 9.0791 13.4851 10.2314C12.7994 11.3837 12.7994 12.6512 13.4851 13.0546C14.1137 13.4579 15.2565 12.8241 15.9423 11.6718Z" fill="#3D424C"/>
<g style="mix-blend-mode:lighten">
<rect x="0.257202" width="43.6426" height="42" fill="#032EDD"/>
</g>
<defs>
<linearGradient id="paint0_linear_1_402" x1="18.4504" y1="22.853" x2="-0.987389" y2="33.1011" gradientUnits="userSpaceOnUse">
<stop offset="0.15" stop-color="#EFEFEF"/>
<stop offset="1" stop-color="#E1E1E1"/>
</linearGradient>
<linearGradient id="paint1_linear_1_402" x1="42.1131" y1="29.421" x2="18.4865" y2="24.8801" gradientUnits="userSpaceOnUse">
<stop offset="0.15" stop-color="#E8E8E8"/>
<stop offset="1" stop-color="#BDBDBD"/>
</linearGradient>
<linearGradient id="paint2_linear_1_402" x1="36.576" y1="19.7505" x2="-9.66362" y2="-3.18816" gradientUnits="userSpaceOnUse">
<stop offset="0.1927" stop-color="#EBEAEA"/>
<stop offset="1" stop-color="white"/>
</linearGradient>
<linearGradient id="paint3_linear_1_402" x1="30.4617" y1="6.3874" x2="17.2584" y2="6.73198" gradientUnits="userSpaceOnUse">
<stop stop-color="#B4CBBA"/>
<stop offset="1" stop-color="#D7E3DA"/>
</linearGradient>
<linearGradient id="paint4_linear_1_402" x1="22.8867" y1="20.3043" x2="26.0579" y2="12.9663" gradientUnits="userSpaceOnUse">
<stop stop-color="#ABD1B3"/>
<stop offset="1" stop-color="white"/>
</linearGradient>
<linearGradient id="paint5_linear_1_402" x1="23.9349" y1="20.7442" x2="26.9211" y2="13.238" gradientUnits="userSpaceOnUse">
<stop stop-color="#E0F4E4"/>
<stop offset="0.2396" stop-color="#ABD1B3"/>
<stop offset="1" stop-color="white"/>
</linearGradient>
<linearGradient id="paint6_linear_1_402" x1="10.6653" y1="13.0252" x2="13.6219" y2="6.27531" gradientUnits="userSpaceOnUse">
<stop stop-color="#E0F4E4"/>
<stop offset="0.2396" stop-color="#ABD1B3"/>
<stop offset="1" stop-color="white"/>
</linearGradient>
</defs>
</svg>
