<svg width="118" height="174" viewBox="0 0 118 174" fill="none" xmlns="http://www.w3.org/2000/svg">
<path d="M0 143.372V74.6263L52.6106 104.627V173.373L0 143.372Z" fill="url(#paint0_linear_1_781)"/>
<path d="M117.582 137.944V69.1978L52.61 104.626V173.372L117.582 137.944Z" fill="url(#paint1_linear_1_781)"/>
<path d="M0 74.6249L64.8211 39.1965L117.432 69.1975L52.6107 104.626L0 74.6249Z" fill="url(#paint2_linear_1_781)"/>
<path d="M54.5707 75.5312L55.6259 74.9281L56.3797 75.3804L55.3244 75.9835L56.8319 76.888L55.7767 77.491L54.2692 76.5865L50.6513 78.3956L50.199 78.0941L49.1438 73.4205L50.199 72.8175L54.5707 75.5312ZM51.1036 77.3403L53.5155 75.9835L50.3498 74.0236V74.1743L51.1036 77.3403Z" fill="black"/>
<path d="M60.7511 71.3114C61.6556 71.9144 62.2586 72.5174 62.4094 72.9697C62.5601 73.422 62.1078 74.025 61.2033 74.4773C60.4496 74.9296 59.5452 75.0803 58.6407 75.0803C57.7362 74.9296 56.8316 74.6281 55.9271 74.1758L54.872 73.5728C53.9675 72.9697 53.3645 72.3667 53.3645 71.9144C53.2138 71.4621 53.666 70.8591 54.5705 70.4068C55.3242 69.9545 56.2287 69.8038 57.1332 69.8038C58.0377 69.9545 58.9422 70.2561 59.8466 70.7083L60.7511 71.3114ZM58.6407 71.1606C58.0377 70.7083 57.4346 70.5576 56.6809 70.4068C56.0779 70.4068 55.6257 70.4068 55.0227 70.7083C54.5705 71.0099 54.2689 71.3114 54.4197 71.6129C54.5704 71.9144 54.872 72.3667 55.6257 72.6682L56.9824 73.422C57.5854 73.8743 58.1884 74.025 58.9421 74.1758C59.5451 74.1758 59.9974 74.1758 60.6004 73.8743C61.0526 73.5728 61.3541 73.2712 61.2033 72.9697C61.0526 72.6682 60.7511 72.2159 59.9974 71.9144L58.6407 71.1606Z" fill="black"/>
<path fill-rule="evenodd" clip-rule="evenodd" d="M43.5667 62.8672L43.1144 65.7316L44.1696 66.4854L44.6218 63.1686L49.5965 66.4854L50.501 65.8823L45.5264 62.5656L50.9532 62.4148L49.898 61.8118L45.2249 61.9626L43.5667 62.8672Z" fill="#36A94C"/>
<path fill-rule="evenodd" clip-rule="evenodd" d="M75.976 80.202L76.4282 77.3376L75.373 76.5838L74.77 79.9004L69.7953 76.5838L68.8908 77.1868L73.8655 80.5035L68.4386 80.6542L69.4938 81.408L74.167 81.2573L75.976 80.202Z" fill="#36A94C"/>
<path d="M61.957 69.9516L59.0929 67.841L63.0122 65.5796L63.766 66.0319L60.6004 67.841L62.1078 69.047C62.4093 68.5948 62.7108 68.2933 63.1631 68.1425C63.9168 67.6902 64.6705 67.5395 65.4242 67.5395C66.178 67.5395 66.9317 67.6902 67.6854 68.1425C68.2884 68.5948 68.7406 69.0471 68.5899 69.4993C68.5899 69.9516 68.1376 70.4039 67.3839 70.8562C66.7809 71.3085 66.0272 71.4592 65.2734 71.4592C64.5197 71.4592 63.9168 71.3085 63.1631 71.0069L64.0675 70.5546C64.5197 70.7054 64.972 70.8562 65.4242 70.8562C65.8765 70.8562 66.3287 70.7054 66.7809 70.4039C67.2331 70.1024 67.5347 69.8009 67.3839 69.4993C67.3839 69.1978 67.0824 68.8963 66.6302 68.5948C66.1779 68.2933 65.7257 68.1425 65.1227 68.1425C64.5197 68.1425 64.0675 68.2933 63.6153 68.5948C63.3138 68.7455 63.0123 69.0471 62.8615 69.3486L62.7107 69.6501L61.957 69.9516Z" fill="black"/>
<path d="M107.784 50.0506C107.784 54.4226 107.784 60.1514 107.784 60.1514V61.5083C107.784 61.659 107.784 61.659 107.784 61.659C107.784 64.2219 106.427 66.4833 104.166 67.8401L101.603 69.3477L100.397 68.5939L99.3419 67.8401L65.1223 87.5896V90.1525L59.2431 93.6199C57.1327 94.826 54.57 95.429 52.0073 95.1275C52.0073 95.1275 41.3043 93.7707 34.5207 90.7555L18.2399 81.4084C15.9787 80.0516 14.9236 78.3933 14.9236 76.5842V54.7241L25.9281 59.5484L68.4387 37.6883C72.0567 35.5777 74.7701 33.6179 78.991 36.03L94.518 44.9248L103.412 37.3868L107.784 46.5831C107.784 46.5831 107.784 48.0907 107.784 50.0506Z" fill="#41464F"/>
<path d="M107.783 50.0524C107.783 54.4244 107.783 60.1533 107.783 60.1533C107.783 60.6056 107.783 60.9071 107.633 61.3593C107.18 63.3192 105.974 65.2791 104.165 66.1836L101.603 67.6912L100.397 68.445L99.3416 67.6912L65.122 87.5914V88.7975L59.2429 92.2649C57.1324 93.471 54.5697 94.074 52.007 93.7725C52.007 93.7725 41.304 92.4157 34.5204 89.4005L18.2397 80.0535C15.9785 78.6967 14.7726 77.0383 14.6218 75.3799V53.3691L25.6263 58.1934L68.137 36.3334C71.7549 34.2227 74.4683 32.2629 78.6892 34.675L94.3668 43.5698L103.261 36.0319L107.633 45.2282C107.783 45.2282 107.783 47.3388 107.783 50.0524Z" fill="url(#paint3_linear_1_781)"/>
<path d="M103.412 33.0173L82.7599 21.1074C78.539 18.6952 72.0569 18.3937 68.2882 20.5043L17.3358 50.0531C13.7179 52.1637 14.0194 55.9327 18.391 58.3448L39.0434 70.2547L103.412 33.0173Z" fill="#EFEFF1"/>
<path d="M18.9953 57.5884C17.0356 56.5331 15.9803 55.0255 15.9803 53.6686C15.9803 52.3118 17.0356 51.4073 17.9401 50.8042L69.0432 21.2555C70.4 20.5017 72.6611 19.8987 74.7716 19.8987C77.6358 19.8987 80.3493 20.6524 82.4597 21.8585L101.605 32.8639L39.0447 69.1968L18.9953 57.5884Z" fill="#36A94C"/>
<path d="M79.595 26.5338L74.1682 29.6997L73.716 30.0012L68.5905 33.0164L67.8368 33.1672L29.5471 55.3287L29.2457 55.4795L21.256 50.806L20.3516 50.3537L20.9546 50.0522L26.0799 47.037L26.5321 46.7355L64.8219 24.5739L65.2741 24.2724L70.3995 21.2572L71.1532 21.7095L79.595 26.5338Z" fill="#323741"/>
<path d="M70.7004 21.2579L70.5496 20.8056L68.8914 16.1321C67.384 11.6093 62.1078 9.64946 58.0377 12.0616L22.0093 33.0171C18.3914 35.1277 16.5824 39.6505 18.0899 43.721L20.2004 50.0529L20.3511 50.5051L28.7929 55.3294L26.0794 47.1884L24.1198 41.6104C23.6675 40.555 24.2705 39.349 25.175 38.5952L58.6407 19.298C60.6004 18.2427 62.8616 19.1473 63.6153 21.1071L64.8213 24.7253L67.8362 33.3186L73.5645 30.0019L70.7004 21.2579Z" fill="url(#paint4_linear_1_781)"/>
<path d="M74.0174 29.5457L73.5652 29.8472L68.4398 32.8624L65.8771 25.0229L65.5756 24.2691L64.6711 21.5555C63.9174 19.5956 61.6561 18.5403 59.6964 19.7464L26.0799 39.1943C25.0246 39.7973 24.5724 41.0033 25.0246 42.2094L26.6829 47.0337L26.9844 47.7875L29.547 55.627L29.2456 55.7777L21.2559 51.1042L21.1052 50.6519L20.9545 50.1996L18.9947 44.1693C17.638 40.0988 19.2963 35.7268 22.9142 33.4654L58.9427 12.6607C63.0128 10.3993 68.289 12.2084 69.7965 16.7312L71.4548 21.4047L71.6055 21.857L74.0174 29.5457Z" fill="url(#paint5_linear_1_781)"/>
<path d="M104.166 51.8603L61.655 76.2832C58.7908 77.9416 55.3236 78.2431 52.1579 77.3385L39.043 70.2529L103.563 33.0154L107.784 45.0761C107.784 47.7898 106.577 50.3527 104.166 51.8603Z" fill="#EFEFF1"/>
<path d="M55.7759 77.0381C54.7206 77.0381 53.5146 76.8873 52.4594 76.5858L40.7012 70.4047L102.809 34.5241L106.728 45.5295C106.879 47.7909 105.673 50.0522 103.563 51.2583L61.3535 75.3797C59.5445 76.435 57.7356 77.0381 55.7759 77.0381Z" fill="#8ADB95"/>
<path d="M77.4833 56.0849C77.634 56.9895 77.031 57.7433 76.1266 57.894C75.0714 58.0448 74.1669 57.4418 74.0161 56.5372C73.8654 55.6327 74.4684 54.8788 75.3728 54.7281C76.2773 54.7281 77.1818 55.1804 77.4833 56.0849Z" fill="#71757C"/>
<path d="M76.882 56.2319C77.0328 56.8349 76.5805 57.4379 75.9775 57.5887C75.2238 57.7394 74.6208 57.2871 74.47 56.6841C74.3193 56.0811 74.7715 55.478 75.3745 55.3273C75.9775 55.1765 76.7313 55.6288 76.882 56.2319Z" fill="#41464F"/>
<path d="M101.603 59.2504V69.3513L100.246 68.5975L99.3418 67.8437L65.1222 87.5932V80.3567L97.5328 61.6626L101.603 59.2504Z" fill="#595E66"/>
<path d="M101.604 59.2504V69.3513L100.247 68.5975L99.3425 67.8437L100.398 60.0042L101.604 59.2504Z" fill="#41464F"/>
<path d="M102.96 34.3723L102.357 33.6185L101.603 33.0154L39.043 69.1976L39.9474 69.6499L41.0027 70.2529L102.96 34.3723Z" fill="#8ADB95"/>
<path d="M54.5717 -8.39233e-05C54.5717 -8.39233e-05 40.1 9.49773 21.2566 19.2971C19.1462 28.0411 33.7687 52.9163 33.7687 52.9163L67.0837 33.6192C67.0837 33.6192 52.3105 8.74393 54.5717 -8.39233e-05Z" fill="#E8E7E7"/>
<path d="M114.115 80.8083L80.7999 100.105C73.564 98.5979 68.2879 92.869 65.1222 88.0447V82.3159L95.8746 64.5263C98.4373 69.1999 104.467 78.8485 114.115 80.8083Z" fill="url(#paint6_linear_1_781)"/>
<path d="M93.3109 35.882C93.0094 35.882 92.7079 35.7312 92.4064 35.7312L91.5019 35.2789C91.2004 35.1282 91.0497 34.8267 91.0497 34.6759C91.0497 34.5252 91.2004 34.2236 91.5019 34.0729L93.4616 32.8668C93.9139 32.5653 94.8184 32.5653 95.2706 32.8668L96.175 33.3191C96.4765 33.4698 96.6273 33.7714 96.6273 33.9221C96.6273 34.0729 96.4765 34.3744 96.175 34.5251L94.2153 35.7312C93.9139 35.882 93.6124 35.882 93.3109 35.882ZM94.3661 32.8668C94.0646 32.8668 93.9138 33.0176 93.6123 33.0176L91.6526 34.2236C91.5019 34.3744 91.3511 34.3744 91.3511 34.6759C91.3511 34.8267 91.5019 34.9774 91.6526 35.1282L92.5572 35.5805C93.0094 35.7312 93.6124 35.7312 94.0646 35.5805L96.0243 34.3744C96.1751 34.2236 96.3259 34.2236 96.3259 33.9221C96.3259 33.7714 96.1751 33.6206 96.0243 33.4698L95.1198 33.0176C94.8183 33.0176 94.6676 32.8668 94.3661 32.8668Z" fill="#3B3F47"/>
<path d="M41.7577 66.1834C41.4562 66.1834 41.1546 66.0327 40.8531 66.0327L39.9487 65.5804C39.6472 65.4297 39.4965 65.1282 39.4965 64.9774C39.4965 64.8266 39.6472 64.5251 39.9487 64.3744L41.9084 63.1683C42.3606 62.8668 43.2652 62.8668 43.7174 63.1683L44.6218 63.6206C44.9233 63.7714 45.0742 64.0729 45.0742 64.2236C45.0742 64.3744 44.9233 64.6759 44.6218 64.8266L42.6621 66.0327C42.5114 66.0327 42.0592 66.1834 41.7577 66.1834ZM42.8129 63.0175C42.5114 63.0175 42.3607 63.1683 42.0592 63.1683L40.0994 64.3744C39.9486 64.5251 39.798 64.5251 39.798 64.8266C39.798 64.9774 39.9486 65.1281 40.0994 65.2789L41.0039 65.7312C41.4562 65.882 42.0592 65.882 42.5114 65.7312L44.4711 64.5251C44.6219 64.3743 44.7727 64.3744 44.7727 64.0728C44.7727 63.9221 44.6219 63.7714 44.4711 63.6206L43.5667 63.1683C43.4159 63.0175 43.1144 63.0175 42.8129 63.0175Z" fill="#3B3F47"/>
<path d="M37.0828 63.3188C36.7813 63.3188 36.4799 63.1681 36.1784 63.1681L35.274 62.7158C34.9725 62.5651 34.8217 62.2636 34.8217 62.1128C34.8217 61.962 34.9725 61.6605 35.274 61.5097L37.2336 60.3037C37.6859 60.0021 38.5904 60.0021 39.0426 60.3037L39.947 60.9067C40.2485 61.0574 40.3992 61.359 40.3992 61.5097C40.3992 61.6605 40.2485 61.962 39.947 62.1128L37.9874 63.3188C37.6859 63.3188 37.3843 63.3188 37.0828 63.3188ZM38.1381 60.3037C37.8366 60.3037 37.6858 60.4544 37.3843 60.4544L35.4247 61.8113C35.2739 61.962 35.1232 61.962 35.1232 62.2635C35.1232 62.4143 35.2739 62.5651 35.4247 62.7158L36.3291 63.1681C36.7813 63.3188 37.3843 63.3188 37.8366 63.1681L39.7963 61.962C39.9471 61.8113 40.0977 61.8112 40.0977 61.5097C40.0977 61.359 39.9471 61.2082 39.7963 61.0575L39.0426 60.4544C38.7411 60.3037 38.4396 60.3037 38.1381 60.3037Z" fill="#3B3F47"/>
<path d="M32.4119 60.6058C32.1104 60.6058 31.809 60.4551 31.5075 60.4551L30.603 60.0028C30.3015 59.8521 30.1508 59.5505 30.1508 59.3998C30.1508 59.249 30.3015 58.9475 30.603 58.7968L32.5626 57.5907C33.0149 57.2891 33.9194 57.2891 34.3716 57.5907L35.2761 58.043C35.5776 58.1937 35.7283 58.4952 35.7283 58.646C35.7283 58.7967 35.5776 59.0983 35.2761 59.249L33.3164 60.4551C33.0149 60.6059 32.7134 60.6058 32.4119 60.6058ZM33.4672 57.5907C33.1657 57.5907 33.0149 57.7414 32.7134 57.7414L30.7538 58.9475C30.603 59.0983 30.4523 59.0983 30.4523 59.3998C30.4523 59.5505 30.603 59.7013 30.7538 59.852L31.6582 60.3044C32.1104 60.4551 32.7134 60.4551 33.1657 60.3044L35.1253 59.0982C35.2761 58.9475 35.4268 58.9475 35.4268 58.646C35.4268 58.4952 35.2761 58.3445 35.1253 58.1937L34.2209 57.7414C34.0702 57.7414 33.7687 57.5907 33.4672 57.5907Z" fill="#3B3F47"/>
<path d="M105.372 44.473L102.96 36.1813L104.015 43.7192C104.317 45.6791 103.261 47.9405 101.452 48.845L60.4492 72.8157C58.188 74.1725 55.4746 74.474 52.9119 74.0218C51.8567 73.871 50.9523 73.5695 50.3493 73.268C48.6911 72.5142 44.6208 71.0066 44.6208 71.0066L51.2537 74.6248C51.2537 74.6248 52.1582 75.3786 54.5702 75.6801C57.1329 75.9816 59.997 74.9263 59.997 74.9263C59.997 74.9263 103.412 50.3526 105.07 48.0912C106.578 45.9806 105.372 44.473 105.372 44.473Z" fill="#8ADB95"/>
<g style="mix-blend-mode:lighten">
<rect width="118" height="174" fill="#032EDD"/>
</g>
<defs>
<linearGradient id="paint0_linear_1_781" x1="40.0806" y1="119.2" x2="-6.09548" y2="135.152" gradientUnits="userSpaceOnUse">
<stop offset="0.15" stop-color="#EDEDED"/>
<stop offset="1" stop-color="#DFDFDF"/>
</linearGradient>
<linearGradient id="paint1_linear_1_781" x1="111.145" y1="125.842" x2="28.576" y2="111.489" gradientUnits="userSpaceOnUse">
<stop offset="0.15" stop-color="#E6E6E6"/>
<stop offset="1" stop-color="#BBBBBB"/>
</linearGradient>
<linearGradient id="paint2_linear_1_781" x1="97.6312" y1="91.4043" x2="-25.4093" y2="29.7066" gradientUnits="userSpaceOnUse">
<stop offset="0.1927" stop-color="#E9E8E8"/>
<stop offset="1" stop-color="white"/>
</linearGradient>
<linearGradient id="paint3_linear_1_781" x1="31.0728" y1="62.8654" x2="67.7646" y2="63.7985" gradientUnits="userSpaceOnUse">
<stop stop-color="#DDF2E2"/>
<stop offset="0.2396" stop-color="#A9CFB1"/>
<stop offset="1" stop-color="white"/>
</linearGradient>
<linearGradient id="paint4_linear_1_781" x1="40.3144" y1="55.15" x2="51.8091" y2="10.6962" gradientUnits="userSpaceOnUse">
<stop stop-color="#A9CFB1"/>
<stop offset="1" stop-color="white"/>
</linearGradient>
<linearGradient id="paint5_linear_1_781" x1="87.9208" y1="6.22178" x2="11.7901" y2="55.213" gradientUnits="userSpaceOnUse">
<stop stop-color="white"/>
<stop offset="1" stop-color="#A9CFB1"/>
</linearGradient>
<linearGradient id="paint6_linear_1_781" x1="92.4904" y1="77.876" x2="70.3284" y2="106.651" gradientUnits="userSpaceOnUse">
<stop offset="0.15" stop-color="#E3F1E6"/>
<stop offset="1" stop-color="#CCFCD5"/>
</linearGradient>
</defs>
</svg>
